<svg xmlns="http://www.w3.org/2000/svg" viewBox="0 0 778.09 611.5"><defs><style>.cls-1{fill:#e9b192;}.cls-1,.cls-12,.cls-13,.cls-14,.cls-15,.cls-16,.cls-17,.cls-3,.cls-4,.cls-5,.cls-6,.cls-7,.cls-9{stroke:#1d1d1b;}.cls-1,.cls-10,.cls-11,.cls-12,.cls-13,.cls-14,.cls-15,.cls-16,.cls-17,.cls-19,.cls-3,.cls-4,.cls-5,.cls-6,.cls-7,.cls-8,.cls-9{stroke-miterlimit:10;}.cls-1,.cls-4,.cls-5,.cls-6,.cls-7,.cls-8,.cls-9{stroke-width:4.57px;}.cls-17,.cls-2{fill:#fff;}.cls-3,.cls-4{fill:#9f7a65;}.cls-3{stroke-width:4.57px;}.cls-15,.cls-19,.cls-5{fill:none;}.cls-6{fill:#63b32f;}.cls-7{fill:#5c5c5b;}.cls-10,.cls-8{fill:#676766;}.cls-8{stroke:#716f6f;}.cls-11,.cls-9{fill:#acdcef;}.cls-10,.cls-11{stroke:#e6dbee;}.cls-10{stroke-width:2.31px;}.cls-11{stroke-width:3.45px;}.cls-12,.cls-18{fill:#917a75;}.cls-12,.cls-13{stroke-width:3.09px;}.cls-13{fill:#b0938d;}.cls-14{fill:#292a63;}.cls-14,.cls-15,.cls-16{stroke-width:2.44px;}.cls-16{fill:#1d1d1b;}.cls-17{stroke-width:4.56px;}.cls-19{stroke:#4e413e;stroke-width:0.74px;}</style></defs><g id="Laag_2" data-name="Laag 2"><g id="Laag_10" data-name="Laag 10"><polygon class="cls-1" points="258.73 573.67 423.05 229.47 606.21 159.57 606.73 229.47 606.3 466.71 417.02 601.66 399.63 609.05 258.73 573.67"/><polygon class="cls-2" points="363.75 313.25 378.69 329.88 384.35 323.85 368.24 306.36 363.75 313.25"/><polygon class="cls-2" points="396.47 269.77 411.37 286.35 417.02 280.32 402.32 264.61 396.47 269.77"/><polygon class="cls-3" points="31.86 552.54 31.86 245.34 399.63 273.08 399.63 608.83 31.86 552.54"/><polygon class="cls-4" points="202.2 66.21 399.63 273.08 31.86 245.34 202.2 66.21"/><polygon class="cls-4" points="453.95 573.45 631.84 594.36 631.84 419.04 453.95 402.66 453.95 573.45"/><line class="cls-5" x1="202.2" y1="66.21" x2="202.2" y2="50.72"/><polyline class="cls-5" points="31.86 245.34 16.78 252.5 9.24 252.5 124.32 132.16 202.2 50.72 417.02 280.32 411.37 286.35 399.63 273.08"/><polyline class="cls-6" points="612.99 323.85 453.95 402.66 610.76 324.96"/><polyline class="cls-5" points="467.52 2.47 203.88 52.32 397.28 259.23"/><path class="cls-7" d="M467.52,2.47l164.32,172.8L415.57,263.4a16.41,16.41,0,0,1-18.29-4.17L258.67,111.07,202.2,50.72Z"/><polygon class="cls-1" points="631.84 419.04 775.8 338.63 775.8 472.93 631.84 594.36 631.84 419.04"/><polyline class="cls-5" points="631.84 594.36 478.83 575.66 459.98 573.45 405.66 608.83 399.63 608.83"/><polygon class="cls-8" points="472.8 423.87 612.99 436.74 612.99 592.14 472.8 575.66 472.8 440.15 472.8 423.87"/><polyline class="cls-8" points="369.4 604.21 370.32 460.79 305.98 453.64 305.06 502.68 366.71 601.72 305.7 594.07 305.06 498.51"/><polygon class="cls-9" points="67.28 498.51 231.6 521.98 231.6 446.39 67.28 427.09 67.28 498.51"/><polygon class="cls-9" points="67.28 371.81 168.28 383.66 168.28 303.24 67.28 291.98 67.28 371.81"/><polyline class="cls-5" points="608.09 180.98 608.09 323.43 777.69 337.47 612.99 323.85 457.92 400.7 631.84 419.04"/><line class="cls-8" x1="472.8" y1="449.5" x2="612.99" y2="463.98"/><line class="cls-8" x1="472.8" y1="473.93" x2="612.99" y2="490.82"/><line class="cls-8" x1="472.8" y1="498.51" x2="612.99" y2="516.15"/><line class="cls-8" x1="472.8" y1="522.79" x2="612.99" y2="539.07"/><line class="cls-8" x1="472.8" y1="550.23" x2="612.99" y2="565.91"/><line class="cls-10" x1="97.06" y1="323.85" x2="107.53" y2="337.82"/><line class="cls-11" x1="106.29" y1="325.8" x2="123.64" y2="346.67"/><line class="cls-10" x1="118.4" y1="466.95" x2="128.88" y2="480.91"/><line class="cls-11" x1="131.53" y1="464.1" x2="148.89" y2="484.96"/><line class="cls-10" x1="149.44" y1="466.95" x2="159.92" y2="480.91"/><polygon class="cls-12" points="258.73 321.87 258.73 333.67 226.32 330.45 226.32 319.19 258.73 321.87"/><polygon class="cls-12" points="343.96 386.99 343.96 398.79 311.55 395.57 311.55 384.31 343.96 386.99"/><polygon class="cls-12" points="368.86 377.66 368.86 389.46 336.45 386.24 336.45 374.98 368.86 377.66"/><polygon class="cls-12" points="207.38 414.48 207.38 426.28 174.96 423.06 174.96 411.81 207.38 414.48"/><polygon class="cls-12" points="191.17 398.1 191.17 409.9 158.76 406.68 158.76 395.42 191.17 398.1"/><polygon class="cls-12" points="88.53 533.29 88.53 545.21 48.96 541.28 48.96 530.02 88.53 533.29"/><polygon class="cls-12" points="107 518.22 107 530.02 74.59 526.81 74.59 515.55 107 518.22"/><polygon class="cls-12" points="132.08 217.45 132.08 229.25 99.67 226.04 99.67 214.78 132.08 217.45"/><polygon class="cls-12" points="158.09 208.74 158.09 220.54 125.67 217.32 125.67 206.06 158.09 208.74"/><polygon class="cls-12" points="261.18 161.32 261.18 173.13 228.77 169.91 228.77 158.65 261.18 161.32"/><polygon class="cls-12" points="277.39 175.8 277.39 187.6 244.98 184.38 244.98 173.13 277.39 175.8"/><polygon class="cls-13" points="454.61 286.05 481.72 273.83 481.72 286.05 454.61 297.81 454.61 286.05"/><polygon class="cls-13" points="467.52 292.21 494.63 280 494.63 292.21 467.52 303.97 467.52 292.21"/><polygon class="cls-13" points="570.82 331.06 597.93 318.85 597.93 331.06 570.82 342.82 570.82 331.06"/><polygon class="cls-13" points="562.51 324.08 589.63 311.87 589.63 324.08 562.51 335.84 562.51 324.08"/><polygon class="cls-13" points="426.84 461.71 453.95 449.5 453.95 461.71 426.84 473.48 426.84 461.71"/><polygon class="cls-13" points="419.18 476.31 446.29 464.1 446.29 476.31 419.18 488.07 419.18 476.31"/><polyline class="cls-4" points="611.49 182.13 625.27 177.48 625.27 177.48"/><polyline class="cls-6" points="775.8 338.63 631.84 419.04 457.92 400.7 612.99 323.85 775.8 338.63"/><polygon class="cls-14" points="287.4 102.32 394.41 204.25 450.21 182.13 346 87.01 287.4 102.32"/><polygon class="cls-14" points="385.07 76.8 484.5 168.54 533.47 149.12 433.72 64.09 385.07 76.8"/><polygon class="cls-15" points="547.39 388.74 547.39 368.34 621.36 394.37 636.33 381.35 564.63 356.74 565.98 374.11 547.39 388.74"/><polygon class="cls-14" points="547.39 368.34 564.63 356.74 636.33 381.35 621.36 394.37 547.39 368.34"/><line class="cls-16" x1="547.39" y1="388.74" x2="621.36" y2="394.37"/><line class="cls-5" x1="630.05" y1="420.04" x2="774.01" y2="339.62"/><polyline class="cls-15" points="615.15 326.43 615.55 344.23 597.92 358.43 597.92 338.03"/><polyline class="cls-15" points="597.92 338.03 671.88 364.06 686.86 351.05 615.15 326.43"/><polyline class="cls-14" points="597.92 338.03 671.88 364.06 686.86 351.05 615.15 326.43"/><line class="cls-16" x1="597.92" y1="358.43" x2="671.88" y2="364.06"/><polygon class="cls-12" points="268.53 298.68 268.53 310.48 236.12 307.26 236.12 296 268.53 298.68"/><polygon class="cls-12" points="284.74 313.15 284.74 324.95 252.33 321.74 252.33 310.48 284.74 313.15"/><polygon class="cls-12" points="280.59 518.22 280.59 530.02 248.18 526.81 248.18 515.55 280.59 518.22"/><polygon class="cls-12" points="293.59 506.95 293.59 518.75 261.18 515.53 261.18 504.27 293.59 506.95"/><polygon class="cls-12" points="277.39 493.94 277.39 505.75 244.98 502.53 244.98 491.27 277.39 493.94"/><polygon class="cls-17" points="202.2 52.29 6.61 254.63 16.78 252.72 31.86 245.61 202.2 67.67 411.37 286.35 417.02 280.36 202.2 52.29"/><path class="cls-18" d="M296.16,214.78v28.34l44.17,3.61V218.27Z"/><line class="cls-19" x1="337.01" y1="246.73" x2="337.01" y2="218.27"/><line class="cls-19" x1="298.99" y1="215" x2="298.99" y2="242.91"/><line class="cls-19" x1="304.63" y1="215.44" x2="304.63" y2="243.45"/><line class="cls-19" x1="311.04" y1="215.94" x2="311.04" y2="244.06"/><line class="cls-19" x1="317.64" y1="216.45" x2="317.64" y2="244.68"/><line class="cls-19" x1="324.51" y1="216.99" x2="324.51" y2="245.34"/><line class="cls-19" x1="331.39" y1="217.53" x2="331.39" y2="245.99"/></g></g></svg>