<svg xmlns="http://www.w3.org/2000/svg" xmlns:xlink="http://www.w3.org/1999/xlink" viewBox="0 0 365.14 507.37"><defs><style>.cls-1{fill:#9f7a65;stroke:#1d1d1b;stroke-width:3.78px;}.cls-1,.cls-15,.cls-16,.cls-17,.cls-18,.cls-19,.cls-2,.cls-20,.cls-21,.cls-22,.cls-23,.cls-24,.cls-25,.cls-26,.cls-27,.cls-28,.cls-29,.cls-3,.cls-30,.cls-31,.cls-32,.cls-33,.cls-34,.cls-35,.cls-36,.cls-37,.cls-38,.cls-39,.cls-4,.cls-40,.cls-41,.cls-42,.cls-43,.cls-44,.cls-45,.cls-46,.cls-47,.cls-48,.cls-49,.cls-50,.cls-51,.cls-52,.cls-53,.cls-54{stroke-miterlimit:10;}.cls-2,.cls-3{fill:#676766;}.cls-2,.cls-3,.cls-4{stroke:#716f6f;}.cls-2{stroke-width:3.82px;}.cls-3{stroke-width:3.7px;}.cls-4{stroke-width:3.75px;fill:url(#Naamloos_verloop_233);}.cls-5{fill:#1b1d21;}.cls-6{fill:#dfe0c7;}.cls-7{fill:url(#Naamloos_verloop_233-2);}.cls-8{fill:#070907;}.cls-9{fill:#818181;}.cls-10{fill:#2d2926;}.cls-11{fill:#23543a;}.cls-12{fill:url(#Naamloos_verloop_254);}.cls-13,.cls-15,.cls-16,.cls-17,.cls-18,.cls-19,.cls-20,.cls-21,.cls-22,.cls-23{fill:#63b32f;}.cls-14{fill:#4e4d4d;}.cls-15,.cls-16,.cls-17,.cls-18,.cls-19,.cls-20,.cls-21,.cls-22,.cls-23,.cls-24,.cls-27,.cls-30,.cls-33,.cls-36,.cls-43,.cls-47,.cls-51{stroke:#5da62c;}.cls-15{stroke-width:0.83px;}.cls-16{stroke-width:0.85px;}.cls-17{stroke-width:0.59px;}.cls-18{stroke-width:0.57px;}.cls-19{stroke-width:0.56px;}.cls-20{stroke-width:0.58px;}.cls-21{stroke-width:0.59px;}.cls-22{stroke-width:0.58px;}.cls-23,.cls-24,.cls-25,.cls-40{stroke-width:0.54px;}.cls-24,.cls-27,.cls-30,.cls-33,.cls-36,.cls-43,.cls-47,.cls-51{fill:none;}.cls-25,.cls-28,.cls-31,.cls-34{fill:#f8ac32;stroke:#e3a72a;}.cls-26,.cls-29,.cls-32,.cls-35{fill:#b94a95;stroke:#a0338a;}.cls-26,.cls-41,.cls-42{stroke-width:0.48px;}.cls-27,.cls-28{stroke-width:0.55px;}.cls-29{stroke-width:0.49px;}.cls-30,.cls-31{stroke-width:0.5px;}.cls-32{stroke-width:0.44px;}.cls-33,.cls-34{stroke-width:0.51px;}.cls-35{stroke-width:0.45px;}.cls-36,.cls-37{stroke-width:0.52px;}.cls-37,.cls-40,.cls-44,.cls-48,.cls-52{fill:#a2cb79;stroke:#5bb130;}.cls-38,.cls-41,.cls-45,.cls-49,.cls-53{fill:#fcbf0b;stroke:#f49a37;}.cls-38,.cls-39{stroke-width:0.47px;}.cls-39,.cls-42,.cls-46,.cls-50,.cls-54{fill:#e5e014;stroke:#e8e454;}.cls-43,.cls-44{stroke-width:0.54px;}.cls-45,.cls-46{stroke-width:0.48px;}.cls-47,.cls-48{stroke-width:0.55px;}.cls-49,.cls-50{stroke-width:0.49px;}.cls-51,.cls-52{stroke-width:0.52px;}.cls-53,.cls-54{stroke-width:0.47px;}</style><linearGradient id="Naamloos_verloop_233" x1="1.9" y1="246.93" x2="362.06" y2="246.93" gradientTransform="translate(7.2 -1.29) scale(0.98 0.99)" gradientUnits="userSpaceOnUse"><stop offset="0.12" stop-color="#757373"/><stop offset="0.46" stop-color="#eae4dd"/><stop offset="1" stop-color="#93908e"/><stop offset="1" stop-color="#eae4dd"/></linearGradient><linearGradient id="Naamloos_verloop_233-2" x1="0" y1="169.08" x2="363.18" y2="169.08" gradientTransform="matrix(1, 0, 0, 1, 0, 0)" xlink:href="#Naamloos_verloop_233"/><linearGradient id="Naamloos_verloop_254" x1="2.59" y1="98.95" x2="360.58" y2="98.95" gradientUnits="userSpaceOnUse"><stop offset="0" stop-color="#757373"/><stop offset="0.46" stop-color="#eae4dd" stop-opacity="0.8"/><stop offset="0.99" stop-color="#757373" stop-opacity="0.8"/><stop offset="1" stop-color="#93908e" stop-opacity="0.5"/><stop offset="1" stop-color="#7b7878" stop-opacity="0.8"/><stop offset="1" stop-color="#eae4dd"/></linearGradient></defs><g id="Laag_2" data-name="Laag 2"><g id="Laag_10" data-name="Laag 10"><rect class="cls-1" x="3.02" y="298.45" width="283.11" height="203.3"/><polygon class="cls-1" points="363.18 400.1 286.13 501.75 286.13 298.45 363.18 222.18 363.18 400.1"/><polygon class="cls-2" points="241.1 501.75 45.73 501.75 45.73 351.96 45.73 326.44 241.1 326.44 241.1 501.75"/><line class="cls-2" x1="45.73" y1="351.96" x2="241.11" y2="351.96"/><line class="cls-2" x1="45.73" y1="375.55" x2="241.11" y2="375.55"/><line class="cls-2" x1="45.73" y1="400.1" x2="239.95" y2="400.1"/><line class="cls-2" x1="45.73" y1="423.29" x2="241.11" y2="423.29"/><line class="cls-2" x1="45.73" y1="447.43" x2="241.11" y2="447.43"/><line class="cls-2" x1="44.58" y1="474.05" x2="239.95" y2="474.05"/><rect class="cls-2" x="3.02" y="284.74" width="283.11" height="13.71"/><polygon class="cls-2" points="363.18 222.18 363.18 205.72 286.13 284.74 286.13 298.45 363.18 222.18"/><polygon class="cls-3" points="9.05 280.98 62.67 249.84 318.69 249.84 287.38 280.98 9.05 280.98"/><polygon class="cls-4" points="360.73 203.12 173.29 203.12 62.31 248.81 9.05 280.98 285.49 280.98 360.73 203.12"/><polygon class="cls-5" points="66.97 191.56 0.28 215.64 285.32 215.64 317.37 191.56 66.97 191.56"/><polyline class="cls-6" points="285.32 246.51 362.89 169.34 362.89 142.18 285.32 215.64 362.89 142.18 181.59 148.56 66.97 191.56"/><polygon class="cls-7" points="0 203.53 285.02 205.53 363.18 132.62 181.83 137.73 0 203.53"/><polygon class="cls-8" points="362.89 166.26 362.89 175.11 285.32 251.75 285.97 241.26 362.89 166.26"/><polygon class="cls-9" points="0.28 215.64 0.28 203.6 285.32 203.6 362.89 132.1 362.89 146.09 285.32 215.64 0.28 215.64"/><rect class="cls-6" x="0.29" y="215.64" width="285.03" height="30.87"/><polygon class="cls-8" points="0.28 248.87 0.28 250.52 285.32 251.75 285.97 241.26 0.28 241.26 0.28 248.87"/><polygon class="cls-10" points="2.66 171.05 285.98 173.87 360.58 103.97 360.58 85.45 285.98 154.59 2.8 153.36 2.66 171.05"/><polygon class="cls-11" points="2.6 137.42 2.8 153.36 285.98 154.59 360.58 85.45 360.58 71.87 285.98 139.61 2.6 137.42"/><polygon class="cls-12" points="285.98 123.73 360.58 58.29 360.58 71.87 285.98 139.61 2.6 137.42 2.6 124.96 285.98 123.73"/><polygon class="cls-13" points="360.37 21.77 285.91 86.69 2.81 86.69 101.5 21.77 360.37 21.77"/><polygon class="cls-14" points="2.6 125.32 3.02 85.82 286.13 85.82 360.58 20.89 360.58 58.66 285.98 124.09 2.6 125.32"/><path class="cls-15" d="M31.38,82.37S30.08,60,17.74,57.57s9.74-1.48,13.64,4.94-5.2-16.31-5.2-16.31,15.17,9.18,13,18.08-2.6-13.63,8.44-12.64c0,0-14.28,20.55-4.54,30.73Z"/><path class="cls-15" d="M54.75,64.28S53.45,42,41.12,39.49,50.86,38,54.75,44.43s-5.19-16.31-5.19-16.31,15.16,9.18,13,18.08S60,32.57,71,33.56c0,0-14.29,20.55-4.55,30.72Z"/><path class="cls-15" d="M84.1,46.2S82.8,23.88,70.46,21.4s9.74-1.48,13.64,5S78.9,10,78.9,10s15.17,9.18,13,18.08-2.6-13.64,8.44-12.65c0,0-14.28,20.56-4.54,30.73Z"/><path class="cls-15" d="M117.67,39S116.38,16.65,104,14.18s9.74-1.49,13.63,4.94-5.19-16.31-5.19-16.31,15.17,9.18,13,18.08-2.6-13.63,8.44-12.64c0,0-14.29,20.55-4.55,30.73Z"/><path class="cls-15" d="M74.88,71.1s-1.3-22.33-13.63-24.8S71,44.82,74.88,51.24s-5.19-16.31-5.19-16.31,15.16,9.18,13,18.09-2.59-13.64,8.45-12.65c0,0-14.29,20.55-4.55,30.73Z"/><path class="cls-15" d="M104.23,53s-1.3-22.33-13.64-24.8,9.74-1.48,13.64,4.94S99,16.85,99,16.85,114.2,26,112,34.93s-2.6-13.63,8.44-12.64c0,0-14.29,20.55-4.55,30.73Z"/><path class="cls-15" d="M101.73,81.35S100.43,59,88.09,56.55s9.74-1.48,13.64,5-5.2-16.31-5.2-16.31,15.17,9.18,13,18.08-2.6-13.64,8.44-12.65c0,0-14.29,20.56-4.55,30.73Z"/><path class="cls-15" d="M131.07,63.27s-1.3-22.33-13.64-24.8,9.74-1.48,13.64,4.94-5.19-16.31-5.19-16.31,15.16,9.18,13,18.09-2.6-13.64,8.44-12.65c0,0-14.28,20.55-4.54,30.73Z"/><path class="cls-16" d="M182.72,55.13s1.39-22.32,14.55-24.79-10.39-1.49-14.55,4.94S188.26,19,188.26,19s-16.17,9.18-13.84,18.08,2.76-13.63-9-12.64c0,0,15.24,20.55,4.85,30.72Z"/><path class="cls-16" d="M151.22,37.16s1.38-22.33,14.54-24.8-10.39-1.48-14.54,4.95S156.76,1,156.76,1s-16.17,9.18-13.85,18.08,2.77-13.64-9-12.65c0,0,15.23,20.56,4.84,30.73Z"/><path class="cls-15" d="M133.19,82.37s-1.3-22.33-13.64-24.8,9.74-1.48,13.64,4.94S128,46.2,128,46.2s15.17,9.18,13,18.08-2.6-13.63,8.44-12.64c0,0-14.29,20.55-4.55,30.73Z"/><path class="cls-15" d="M162.53,64.28S161.23,42,148.9,39.49s9.74-1.49,13.63,4.94-5.19-16.31-5.19-16.31,15.16,9.18,13,18.08-2.59-13.63,8.44-12.64c0,0-14.28,20.55-4.54,30.72Z"/><path class="cls-17" d="M58,83.47s-1-15.27-10.2-17,7.29-1,10.2,3.39-3.88-11.16-3.88-11.16S65.42,65,63.79,71.1s-1.95-9.33,6.32-8.65c0,0-10.7,14.06-3.41,21Z"/><path class="cls-18" d="M152.22,46.39s-1-14.15-10.07-15.71,7.19-.94,10.07,3.13-3.83-10.33-3.83-10.33,11.19,5.81,9.58,11.45-1.91-8.64,6.24-8c0,0-10.55,13-3.36,19.47Z"/><path class="cls-16" d="M169.12,82.37s1.39-22.33,14.54-24.8-10.38-1.48-14.54,4.94,5.54-16.31,5.54-16.31-16.17,9.18-13.85,18.08,2.77-13.63-9-12.64c0,0,15.23,20.55,4.85,30.73Z"/><path class="cls-16" d="M204.93,41.56s1.38-22.33,14.54-24.8-10.39-1.48-14.54,4.94,5.54-16.31,5.54-16.31-16.18,9.19-13.85,18.09,2.77-13.64-9-12.65c0,0,15.23,20.55,4.84,30.73Z"/><path class="cls-16" d="M222.83,85.4s1.39-22.32,14.54-24.79S227,59.12,222.83,65.55s5.54-16.31,5.54-16.31-16.17,9.18-13.85,18.08,2.77-13.63-9-12.65c0,0,15.23,20.56,4.85,30.73Z"/><path class="cls-19" d="M200.8,60.81s1-13.3,10.39-14.78-7.43-.88-10.39,2.95,3.95-9.72,3.95-9.72S193.2,44.73,194.86,50s2-8.13-6.43-7.54c0,0,10.88,12.25,3.46,18.31Z"/><path class="cls-20" d="M178.15,35.57s.95-14.93,10-16.58-7.14-1-10,3.3S182,11.39,182,11.39s-11.13,6.14-9.53,12.09,1.91-9.12-6.19-8.46c0,0,10.48,13.74,3.33,20.55Z"/><path class="cls-16" d="M275.79,39.85s1.39-22.33,14.54-24.8S280,13.57,275.79,20s5.54-16.31,5.54-16.31-16.17,9.18-13.85,18.09,2.77-13.64-9-12.65c0,0,15.24,20.55,4.85,30.73Z"/><path class="cls-16" d="M316.56,54.82S317.94,32.5,331.1,30,320.71,28.54,316.56,35s5.54-16.31,5.54-16.31-16.18,9.18-13.85,18.08,2.77-13.63-9-12.65c0,0,15.23,20.56,4.84,30.73Z"/><path class="cls-16" d="M291.42,78.89S292.81,56.57,306,54.1,295.58,52.61,291.42,59,297,42.73,297,42.73s-16.17,9.18-13.85,18.08,2.77-13.63-9-12.65c0,0,15.24,20.56,4.85,30.73Z"/><path class="cls-21" d="M331.8,34.06s-1-15.18-10.31-16.86,7.36-1,10.31,3.36-3.93-11.09-3.93-11.09,11.47,6.24,9.82,12.3-2-9.28,6.38-8.6c0,0-10.8,14-3.43,20.89Z"/><path class="cls-15" d="M257.18,73.22s-1.29-22.33-13.63-24.8,9.74-1.48,13.63,4.94S252,37.05,252,37.05s15.16,9.18,13,18.08-2.6-13.63,8.44-12.64c0,0-14.29,20.55-4.55,30.73Z"/><path class="cls-15" d="M189,82.37s-1.3-22.33-13.63-24.8,9.74-1.48,13.63,4.94-5.19-16.31-5.19-16.31,15.16,9.18,13,18.08-2.6-13.63,8.44-12.64c0,0-14.29,20.55-4.55,30.73Z"/><path class="cls-15" d="M236.8,41.56s-1.3-22.33-13.63-24.8,9.74-1.48,13.63,4.94-5.19-16.31-5.19-16.31,15.16,9.19,13,18.09S242,9.84,253,10.83c0,0-14.28,20.55-4.54,30.73Z"/><path class="cls-22" d="M215.79,47.06s-1-14.19-10.64-15.76,7.6-.95,10.64,3.14-4.06-10.37-4.06-10.37,11.84,5.84,10.14,11.5-2-8.67,6.59-8c0,0-11.15,13.07-3.55,19.54Z"/><path class="cls-16" d="M243.47,57.93S244.85,35.6,258,33.13s-10.39-1.48-14.54,4.95S249,21.77,249,21.77,232.84,31,235.16,39.85s2.77-13.64-9-12.65c0,0,15.23,20.56,4.85,30.73Z"/><path class="cls-15" d="M285.87,47.55s-1.3-22.32-13.63-24.8,9.74-1.48,13.63,4.95-5.19-16.31-5.19-16.31,15.16,9.18,13,18.08-2.59-13.64,8.44-12.65c0,0-14.28,20.56-4.54,30.73Z"/><path class="cls-23" d="M241.73,82.43s-.94-13-9.88-14.48,7.05-.86,9.88,2.89S238,61.31,238,61.31s11,5.37,9.41,10.56-1.88-8,6.12-7.38c0,0-10.35,12-3.29,17.94Z"/><path class="cls-24" d="M120.41,78.08s-1.88-14.72,3-24.7c.08-.17.16-.33.25-.5"/><ellipse class="cls-25" cx="125.34" cy="51.59" rx="2.33" ry="2.21"/><ellipse class="cls-26" cx="124.77" cy="47.17" rx="1.11" ry="2.62"/><ellipse class="cls-26" cx="126.86" cy="47.36" rx="2.63" ry="1.11" transform="translate(59.05 164.58) rotate(-80.42)"/><ellipse class="cls-26" cx="128.83" cy="48.38" rx="2.67" ry="1.09" transform="translate(12.82 122.4) rotate(-53.12)"/><ellipse class="cls-26" cx="130.18" cy="50.64" rx="2.75" ry="1.06" transform="translate(-9.2 41.49) rotate(-17.5)"/><ellipse class="cls-26" cx="129.96" cy="52.88" rx="1.06" ry="2.76" transform="matrix(0.15, -0.99, 0.99, 0.15, 58.79, 173.8)"/><ellipse class="cls-26" cx="128.53" cy="55.08" rx="1.08" ry="2.68" transform="translate(-2.9 102.84) rotate(-43.17)"/><ellipse class="cls-26" cx="125.88" cy="55.92" rx="1.11" ry="2.62"/><ellipse class="cls-26" cx="123.42" cy="55.73" rx="2.63" ry="1.11" transform="translate(40.6 162.88) rotate(-76.6)"/><ellipse class="cls-26" cx="121.42" cy="54.22" rx="2.7" ry="1.08" transform="translate(-6.95 88.93) rotate(-39.19)"/><ellipse class="cls-26" cx="120.67" cy="52.06" rx="2.75" ry="1.06" transform="translate(-7.56 23.28) rotate(-10.69)"/><ellipse class="cls-26" cx="122.45" cy="48.12" rx="1.09" ry="2.66" transform="translate(-6.98 71.71) rotate(-31.78)"/><ellipse class="cls-26" cx="120.8" cy="49.79" rx="1.07" ry="2.73" transform="translate(19.68 132.53) rotate(-61.69)"/><path class="cls-24" d="M205,81.6s-1.88-14.72,3-24.71c.08-.16.16-.33.25-.49"/><ellipse class="cls-25" cx="209.91" cy="55.11" rx="2.33" ry="2.21"/><ellipse class="cls-26" cx="209.34" cy="50.68" rx="1.11" ry="2.62"/><ellipse class="cls-26" cx="211.43" cy="50.88" rx="2.63" ry="1.11" transform="translate(126.09 250.9) rotate(-80.42)"/><ellipse class="cls-26" cx="213.4" cy="51.89" rx="2.67" ry="1.09" transform="translate(43.83 191.45) rotate(-53.12)"/><ellipse class="cls-26" cx="214.75" cy="54.16" rx="2.75" ry="1.06" transform="matrix(0.95, -0.3, 0.3, 0.95, -6.35, 67.08)"/><ellipse class="cls-26" cx="214.53" cy="56.4" rx="1.06" ry="2.76" transform="translate(127.61 260.48) rotate(-81.66)"/><ellipse class="cls-26" cx="213.1" cy="58.6" rx="1.08" ry="2.68" transform="translate(17.58 161.64) rotate(-43.17)"/><ellipse class="cls-26" cx="210.45" cy="59.43" rx="1.11" ry="2.62"/><ellipse class="cls-26" cx="207.99" cy="59.25" rx="2.63" ry="1.11" transform="translate(102.15 247.84) rotate(-76.6)"/><ellipse class="cls-26" cx="205.99" cy="57.74" rx="2.7" ry="1.08" transform="translate(9.86 143.16) rotate(-39.19)"/><ellipse class="cls-26" cx="205.24" cy="55.57" rx="2.75" ry="1.06" transform="translate(-6.74 39.02) rotate(-10.69)"/><ellipse class="cls-26" cx="207.02" cy="51.63" rx="1.09" ry="2.66" transform="translate(3.85 116.78) rotate(-31.78)"/><ellipse class="cls-26" cx="205.37" cy="53.31" rx="1.07" ry="2.73" transform="translate(61.05 208.84) rotate(-61.69)"/><path class="cls-27" d="M263.41,59.5s2-14.73-3.14-24.71c-.08-.17-.17-.33-.26-.5"/><ellipse class="cls-28" cx="258.25" cy="33.01" rx="2.44" ry="2.21"/><ellipse class="cls-29" cx="258.85" cy="28.58" rx="1.16" ry="2.62"/><ellipse class="cls-29" cx="256.66" cy="28.78" rx="1.16" ry="2.63" transform="translate(-1.03 46.08) rotate(-10.24)"/><ellipse class="cls-29" cx="254.6" cy="29.79" rx="1.12" ry="2.72" transform="translate(37.29 165.75) rotate(-38.71)"/><ellipse class="cls-29" cx="253.18" cy="32.05" rx="1.06" ry="2.87" transform="translate(150.54 265.7) rotate(-73.5)"/><ellipse class="cls-29" cx="253.4" cy="34.29" rx="2.89" ry="1.06" transform="translate(-2.31 34.91) rotate(-7.85)"/><ellipse class="cls-29" cx="254.91" cy="36.5" rx="2.75" ry="1.11" transform="translate(48.76 190.82) rotate(-44.97)"/><ellipse class="cls-29" cx="257.69" cy="37.33" rx="1.16" ry="2.62"/><ellipse class="cls-29" cx="260.27" cy="37.15" rx="1.16" ry="2.64" transform="translate(-1.11 65.46) rotate(-14.31)"/><ellipse class="cls-29" cx="262.36" cy="35.64" rx="1.1" ry="2.78" transform="translate(74.7 222.41) rotate(-52.6)"/><ellipse class="cls-29" cx="263.14" cy="33.47" rx="1.06" ry="2.88" transform="matrix(0.17, -0.98, 0.98, 0.17, 184.25, 286.73)"/><ellipse class="cls-29" cx="261.28" cy="29.53" rx="2.7" ry="1.13" transform="translate(92.4 231.07) rotate(-56.49)"/><ellipse class="cls-29" cx="263.01" cy="31.2" rx="2.83" ry="1.08" transform="translate(14.21 122.02) rotate(-26.82)"/><path class="cls-30" d="M303.52,65.71s-1.88-12.48,3-20.94a4.23,4.23,0,0,1,.25-.42"/><ellipse class="cls-31" cx="308.45" cy="43.25" rx="2.33" ry="1.88"/><ellipse class="cls-32" cx="307.88" cy="39.5" rx="1.11" ry="2.22"/><ellipse class="cls-32" cx="309.97" cy="39.67" rx="2.24" ry="1.1" transform="translate(205.43 334.16) rotate(-77.75)"/><ellipse class="cls-32" cx="311.94" cy="40.53" rx="2.42" ry="1.02" transform="translate(67.9 239.01) rotate(-46.52)"/><ellipse class="cls-32" cx="313.29" cy="42.45" rx="2.71" ry="0.91" transform="translate(-0.79 78.55) rotate(-14.27)"/><ellipse class="cls-32" cx="313.07" cy="44.35" rx="0.9" ry="2.75" transform="translate(232.19 350.02) rotate(-83.24)"/><ellipse class="cls-32" cx="311.64" cy="46.21" rx="0.99" ry="2.48" transform="translate(74.9 254.08) rotate(-49.72)"/><ellipse class="cls-32" cx="308.99" cy="46.92" rx="1.11" ry="2.22"/><ellipse class="cls-32" cx="306.52" cy="46.76" rx="2.25" ry="1.09" transform="translate(172.09 326.18) rotate(-72.98)"/><ellipse class="cls-32" cx="304.53" cy="45.48" rx="2.55" ry="0.97" transform="translate(24.54 173.59) rotate(-33.08)"/><ellipse class="cls-32" cx="303.78" cy="43.65" rx="2.74" ry="0.9" transform="translate(-3.11 46.28) rotate(-8.67)"/><ellipse class="cls-32" cx="305.55" cy="40.31" rx="1.04" ry="2.38" transform="translate(40.43 197.47) rotate(-38.17)"/><ellipse class="cls-32" cx="303.91" cy="41.73" rx="0.93" ry="2.64" transform="translate(144.9 304.05) rotate(-66.6)"/><path class="cls-24" d="M167.87,52.41s-1.89-14.73,3-24.71c.08-.17.16-.33.25-.49"/><ellipse class="cls-25" cx="172.79" cy="25.92" rx="2.33" ry="2.21"/><ellipse class="cls-26" cx="172.22" cy="21.49" rx="1.11" ry="2.62"/><ellipse class="cls-26" cx="174.32" cy="21.69" rx="2.63" ry="1.11" transform="translate(123.93 189.97) rotate(-80.42)"/><ellipse class="cls-26" cx="176.28" cy="22.7" rx="2.67" ry="1.09" transform="translate(52.34 150.09) rotate(-53.12)"/><ellipse class="cls-26" cx="177.64" cy="24.96" rx="2.75" ry="1.06" transform="translate(0.71 54.57) rotate(-17.5)"/><ellipse class="cls-26" cx="177.42" cy="27.21" rx="1.06" ry="2.76" transform="translate(124.76 198.8) rotate(-81.66)"/><ellipse class="cls-26" cx="175.99" cy="29.41" rx="1.08" ry="2.68" transform="translate(27.51 128.35) rotate(-43.17)"/><ellipse class="cls-26" cx="173.33" cy="30.24" rx="1.11" ry="2.62"/><ellipse class="cls-26" cx="170.87" cy="30.06" rx="2.63" ry="1.11" transform="translate(102.03 189.31) rotate(-76.6)"/><ellipse class="cls-26" cx="168.88" cy="28.55" rx="2.7" ry="1.08" transform="translate(19.95 113.14) rotate(-39.19)"/><ellipse class="cls-26" cx="168.13" cy="26.38" rx="2.75" ry="1.06" transform="translate(-1.98 31.63) rotate(-10.69)"/><ellipse class="cls-26" cx="169.9" cy="22.44" rx="1.09" ry="2.66" transform="translate(13.66 92.85) rotate(-31.78)"/><ellipse class="cls-26" cx="168.25" cy="24.12" rx="1.07" ry="2.73" transform="translate(67.24 160.81) rotate(-61.69)"/><path class="cls-24" d="M101.65,53.27s-1.88-14.73,3-24.71c.08-.17.16-.33.25-.49"/><ellipse class="cls-25" cx="106.57" cy="26.78" rx="2.33" ry="2.21"/><ellipse class="cls-26" cx="106.01" cy="22.35" rx="1.11" ry="2.62"/><ellipse class="cls-26" cx="108.1" cy="22.55" rx="2.63" ry="1.11" transform="translate(67.88 125.39) rotate(-80.42)"/><ellipse class="cls-26" cx="110.06" cy="23.56" rx="2.67" ry="1.09" transform="matrix(0.6, -0.8, 0.8, 0.6, 25.17, 97.47)"/><ellipse class="cls-26" cx="111.42" cy="25.82" rx="2.75" ry="1.06" transform="translate(-2.61 34.7) rotate(-17.5)"/><ellipse class="cls-26" cx="111.2" cy="28.07" rx="1.06" ry="2.76" transform="translate(67.3 134.02) rotate(-81.66)"/><ellipse class="cls-26" cx="109.77" cy="30.27" rx="1.08" ry="2.68" transform="translate(9 83.28) rotate(-43.17)"/><ellipse class="cls-26" cx="107.12" cy="31.1" rx="1.11" ry="2.62"/><ellipse class="cls-26" cx="104.65" cy="30.92" rx="2.63" ry="1.11" transform="translate(50.32 125.56) rotate(-76.6)"/><ellipse class="cls-26" cx="102.66" cy="29.41" rx="2.7" ry="1.08" transform="translate(4.51 71.49) rotate(-39.19)"/><ellipse class="cls-26" cx="101.91" cy="27.24" rx="2.75" ry="1.06" transform="translate(-3.28 19.37) rotate(-10.69)"/><ellipse class="cls-26" cx="103.68" cy="23.3" rx="1.09" ry="2.66" transform="translate(3.28 58.1) rotate(-31.78)"/><ellipse class="cls-26" cx="102.04" cy="24.98" rx="1.07" ry="2.73" transform="translate(31.66 102.97) rotate(-61.69)"/><path class="cls-24" d="M44.1,84.56s-1.53-3,3.35-13l.25-.49"/><ellipse class="cls-25" cx="49.38" cy="69.8" rx="2.33" ry="2.21"/><ellipse class="cls-26" cx="48.81" cy="65.37" rx="1.11" ry="2.62"/><ellipse class="cls-26" cx="50.9" cy="65.57" rx="2.63" ry="1.11" transform="translate(-22.22 104.86) rotate(-80.42)"/><ellipse class="cls-26" cx="52.87" cy="66.58" rx="2.67" ry="1.09" transform="translate(-32.12 68.92) rotate(-53.12)"/><ellipse class="cls-26" cx="54.22" cy="68.85" rx="2.75" ry="1.06" transform="matrix(0.95, -0.3, 0.3, 0.95, -18.19, 19.49)"/><ellipse class="cls-26" cx="54.01" cy="71.09" rx="1.06" ry="2.76" transform="translate(-24.17 114.21) rotate(-81.66)"/><ellipse class="cls-26" cx="52.57" cy="73.29" rx="1.08" ry="2.68" transform="translate(-35.91 55.8) rotate(-43.17)"/><ellipse class="cls-26" cx="49.92" cy="74.12" rx="1.11" ry="2.62"/><ellipse class="cls-26" cx="47.46" cy="73.94" rx="2.63" ry="1.11" transform="translate(-35.47 102.97) rotate(-76.6)"/><ellipse class="cls-26" cx="45.46" cy="72.43" rx="2.7" ry="1.08" transform="translate(-35.54 45.03) rotate(-39.19)"/><ellipse class="cls-26" cx="44.71" cy="70.26" rx="2.75" ry="1.06" transform="translate(-12.25 9.51) rotate(-10.69)"/><ellipse class="cls-26" cx="46.49" cy="66.32" rx="1.09" ry="2.66" transform="translate(-27.96 34.43) rotate(-31.78)"/><ellipse class="cls-26" cx="44.84" cy="68" rx="1.07" ry="2.73" transform="translate(-36.29 75.23) rotate(-61.69)"/><path class="cls-33" d="M177.54,85s1.36-3-3-13l-.23-.5"/><ellipse class="cls-34" cx="172.84" cy="70.26" rx="2.07" ry="2.21"/><ellipse class="cls-35" cx="173.34" cy="65.84" rx="0.99" ry="2.62"/><ellipse class="cls-35" cx="171.48" cy="66.04" rx="0.99" ry="2.62" transform="translate(-7.65 25.09) rotate(-8.19)"/><ellipse class="cls-35" cx="169.73" cy="67.05" rx="1.01" ry="2.57" transform="translate(-9.39 102) rotate(-32.6)"/><ellipse class="cls-35" cx="168.52" cy="69.31" rx="1.05" ry="2.48" transform="translate(45.01 203.28) rotate(-69.68)"/><ellipse class="cls-35" cx="168.72" cy="71.55" rx="2.46" ry="1.05" transform="translate(-9.7 29.68) rotate(-9.77)"/><ellipse class="cls-35" cx="169.99" cy="73.76" rx="2.55" ry="1.02" transform="translate(6.24 160.49) rotate(-51.36)"/><ellipse class="cls-35" cx="172.36" cy="74.59" rx="0.99" ry="2.62"/><ellipse class="cls-35" cx="174.55" cy="74.41" rx="0.99" ry="2.62" transform="translate(-11.32 36.23) rotate(-11.48)"/><ellipse class="cls-35" cx="176.33" cy="72.9" rx="1.02" ry="2.53" transform="translate(1.75 149.9) rotate(-46.26)"/><ellipse class="cls-35" cx="176.99" cy="70.73" rx="1.05" ry="2.47" transform="translate(69.65 228.23) rotate(-77.5)"/><ellipse class="cls-35" cx="175.41" cy="66.79" rx="2.58" ry="1" transform="translate(34.43 190.7) rotate(-62.16)"/><ellipse class="cls-35" cx="176.88" cy="68.46" rx="2.5" ry="1.04" transform="translate(-9.21 105.13) rotate(-32.31)"/><path class="cls-24" d="M257.81,85.49s-1.53-3,3.35-13c.08-.17.17-.34.25-.5"/><ellipse class="cls-25" cx="263.09" cy="70.73" rx="2.33" ry="2.21"/><ellipse class="cls-26" cx="262.52" cy="66.31" rx="1.11" ry="2.62"/><ellipse class="cls-26" cx="264.62" cy="66.5" rx="2.63" ry="1.11" transform="translate(155.02 316.37) rotate(-80.42)"/><ellipse class="cls-26" cx="266.58" cy="67.51" rx="2.67" ry="1.09" transform="translate(52.6 240.25) rotate(-53.12)"/><ellipse class="cls-26" cx="267.93" cy="69.78" rx="2.75" ry="1.06" transform="translate(-8.58 83.8) rotate(-17.5)"/><ellipse class="cls-26" cx="267.72" cy="72.02" rx="1.06" ry="2.76" transform="translate(157.62 326.46) rotate(-81.66)"/><ellipse class="cls-26" cx="266.28" cy="74.22" rx="1.08" ry="2.68" transform="translate(21.29 202.26) rotate(-43.17)"/><ellipse class="cls-26" cx="263.63" cy="75.05" rx="1.11" ry="2.62"/><ellipse class="cls-26" cx="261.17" cy="74.87" rx="2.63" ry="1.11" transform="translate(127.81 311.58) rotate(-76.6)"/><ellipse class="cls-26" cx="259.18" cy="73.36" rx="2.7" ry="1.08" transform="translate(11.95 180.29) rotate(-39.19)"/><ellipse class="cls-26" cx="258.43" cy="71.19" rx="2.75" ry="1.06" transform="translate(-8.72 49.15) rotate(-10.69)"/><ellipse class="cls-26" cx="260.2" cy="67.25" rx="1.09" ry="2.66" transform="translate(3.59 147.13) rotate(-31.78)"/><ellipse class="cls-26" cx="258.55" cy="68.93" rx="1.07" ry="2.73" transform="translate(75.26 263.88) rotate(-61.69)"/><path class="cls-36" d="M97.42,70.68s1.45-3-3.19-13c-.07-.16-.15-.33-.23-.49"/><circle class="cls-37" cx="92.4" cy="55.92" r="2.21"/><ellipse class="cls-38" cx="92.94" cy="51.49" rx="1.05" ry="2.62"/><ellipse class="cls-39" cx="90.96" cy="51.69" rx="1.05" ry="2.62" transform="translate(-6.91 14.71) rotate(-8.91)"/><ellipse class="cls-38" cx="89.09" cy="52.7" rx="1.05" ry="2.62" transform="translate(-14.13 60.45) rotate(-34.9)"/><ellipse class="cls-39" cx="87.81" cy="54.97" rx="1.05" ry="2.62" transform="translate(7.58 120.51) rotate(-71.29)"/><ellipse class="cls-38" cx="88.01" cy="57.21" rx="2.62" ry="1.05" transform="translate(-7.83 14.39) rotate(-8.95)"/><ellipse class="cls-39" cx="89.37" cy="59.41" rx="2.62" ry="1.05" transform="translate(-14.15 87.7) rotate(-48.9)"/><ellipse class="cls-38" cx="91.89" cy="60.24" rx="1.05" ry="2.62"/><ellipse class="cls-39" cx="94.23" cy="60.06" rx="1.05" ry="2.62" transform="translate(-10.75 21.79) rotate(-12.48)"/><ellipse class="cls-38" cx="96.12" cy="58.55" rx="1.05" ry="2.62" transform="translate(-11.26 92.25) rotate(-48.77)"/><ellipse class="cls-39" cx="96.83" cy="56.38" rx="1.05" ry="2.62" transform="translate(22.35 140.09) rotate(-78.55)"/><ellipse class="cls-39" cx="95.15" cy="52.44" rx="2.62" ry="1.05" transform="translate(2.21 108.71) rotate(-60.06)"/><ellipse class="cls-38" cx="96.71" cy="54.12" rx="2.62" ry="1.05" transform="translate(-14.1 55.71) rotate(-30.06)"/><path class="cls-24" d="M140.37,84.66s-1.53-3,3.36-13c.08-.17.16-.34.25-.5"/><ellipse class="cls-40" cx="145.65" cy="69.9" rx="2.33" ry="2.21"/><ellipse class="cls-41" cx="145.08" cy="65.48" rx="1.11" ry="2.62"/><ellipse class="cls-42" cx="147.18" cy="65.67" rx="2.63" ry="1.11" transform="translate(57.94 199.87) rotate(-80.42)"/><ellipse class="cls-41" cx="149.14" cy="66.68" rx="2.67" ry="1.09" transform="translate(6.3 145.97) rotate(-53.12)"/><ellipse class="cls-42" cx="150.5" cy="68.95" rx="2.75" ry="1.06" transform="translate(-13.77 48.45) rotate(-17.5)"/><ellipse class="cls-41" cx="150.28" cy="71.19" rx="1.06" ry="2.76" transform="translate(58.04 209.55) rotate(-81.66)"/><ellipse class="cls-42" cx="148.85" cy="73.39" rx="1.08" ry="2.68" transform="translate(-9.93 121.69) rotate(-43.17)"/><ellipse class="cls-41" cx="146.19" cy="74.22" rx="1.11" ry="2.62"/><ellipse class="cls-42" cx="143.73" cy="74.04" rx="2.63" ry="1.11" transform="translate(38.4 196.7) rotate(-76.6)"/><ellipse class="cls-41" cx="141.74" cy="72.53" rx="2.7" ry="1.08" transform="translate(-13.95 105.89) rotate(-39.19)"/><ellipse class="cls-42" cx="140.99" cy="70.36" rx="2.75" ry="1.06" transform="translate(-10.6 27.36) rotate(-10.69)"/><ellipse class="cls-42" cx="142.76" cy="66.42" rx="1.09" ry="2.66" transform="translate(-13.58 85.15) rotate(-31.78)"/><ellipse class="cls-41" cx="141.11" cy="68.1" rx="1.07" ry="2.73" transform="translate(14.24 160.05) rotate(-61.69)"/><path class="cls-43" d="M234.09,85.49s1.53-3-3.34-13c-.08-.17-.16-.34-.25-.5"/><ellipse class="cls-44" cx="228.83" cy="70.73" rx="2.32" ry="2.21"/><ellipse class="cls-45" cx="229.4" cy="66.31" rx="1.11" ry="2.62"/><ellipse class="cls-46" cx="227.31" cy="66.5" rx="1.1" ry="2.63" transform="matrix(0.99, -0.17, 0.17, 0.99, -7.87, 38.56)"/><ellipse class="cls-45" cx="225.35" cy="67.51" rx="1.09" ry="2.67" transform="translate(4.39 148.25) rotate(-36.75)"/><ellipse class="cls-46" cx="224" cy="69.78" rx="1.06" ry="2.74" transform="translate(89.85 262.26) rotate(-72.43)"/><ellipse class="cls-45" cx="224.22" cy="72.02" rx="2.75" ry="1.06" transform="translate(-8.1 33.44) rotate(-8.38)"/><ellipse class="cls-46" cx="225.65" cy="74.22" rx="2.68" ry="1.08" transform="translate(17.41 188.51) rotate(-46.97)"/><ellipse class="cls-45" cx="228.29" cy="75.05" rx="1.11" ry="2.62"/><ellipse class="cls-46" cx="230.75" cy="74.87" rx="1.1" ry="2.63" transform="translate(-11.05 55.25) rotate(-13.34)"/><ellipse class="cls-45" cx="232.73" cy="73.36" rx="1.08" ry="2.7" transform="translate(28.5 206.92) rotate(-50.68)"/><ellipse class="cls-46" cx="233.48" cy="71.19" rx="1.06" ry="2.75" transform="translate(120.05 287.33) rotate(-79.27)"/><ellipse class="cls-46" cx="231.71" cy="67.25" rx="2.66" ry="1.09" transform="translate(52.84 229.17) rotate(-58.34)"/><ellipse class="cls-45" cx="233.35" cy="68.93" rx="2.72" ry="1.07" transform="translate(-4.69 119.35) rotate(-28.42)"/><path class="cls-24" d="M69.48,48.49s-1.52-3,3.36-13c.08-.17.16-.33.25-.5"/><ellipse class="cls-40" cx="74.76" cy="33.72" rx="2.33" ry="2.21"/><ellipse class="cls-41" cx="74.2" cy="29.3" rx="1.11" ry="2.62"/><ellipse class="cls-42" cx="76.29" cy="29.49" rx="2.63" ry="1.11" transform="translate(34.51 99.81) rotate(-80.42)"/><ellipse class="cls-41" cx="78.25" cy="30.51" rx="2.67" ry="1.09" transform="translate(6.89 74.8) rotate(-53.12)"/><ellipse class="cls-42" cx="79.61" cy="32.77" rx="2.75" ry="1.06" transform="translate(-6.17 25.46) rotate(-17.5)"/><ellipse class="cls-41" cx="79.39" cy="35.01" rx="1.06" ry="2.76" transform="translate(33.23 108.48) rotate(-81.66)"/><ellipse class="cls-42" cx="77.96" cy="37.22" rx="1.08" ry="2.68" transform="translate(-4.36 63.4) rotate(-43.17)"/><ellipse class="cls-41" cx="75.31" cy="38.05" rx="1.11" ry="2.62"/><ellipse class="cls-42" cx="72.84" cy="37.87" rx="2.63" ry="1.11" transform="translate(19.13 99.95) rotate(-76.6)"/><ellipse class="cls-41" cx="70.85" cy="36.36" rx="2.7" ry="1.08" transform="translate(-7.04 52.95) rotate(-39.19)"/><ellipse class="cls-42" cx="70.1" cy="34.19" rx="2.75" ry="1.06" transform="translate(-5.12 13.59) rotate(-10.69)"/><ellipse class="cls-42" cx="71.87" cy="30.25" rx="1.09" ry="2.66" transform="translate(-5.15 42.39) rotate(-31.78)"/><ellipse class="cls-41" cx="70.22" cy="31.92" rx="1.07" ry="2.73" transform="translate(8.82 78.61) rotate(-61.69)"/><path class="cls-47" d="M151.14,48.23s1.57-3-3.45-13c-.08-.17-.17-.34-.26-.5"/><ellipse class="cls-48" cx="145.71" cy="33.47" rx="2.39" ry="2.21"/><ellipse class="cls-49" cx="146.29" cy="29.05" rx="1.14" ry="2.62"/><ellipse class="cls-50" cx="144.14" cy="29.24" rx="1.14" ry="2.63" transform="translate(-2.89 25.4) rotate(-9.97)"/><ellipse class="cls-49" cx="142.11" cy="30.26" rx="1.11" ry="2.7" transform="translate(11.48 93.88) rotate(-37.99)"/><ellipse class="cls-50" cx="140.72" cy="32.52" rx="1.06" ry="2.82" transform="translate(68.74 157.73) rotate(-73.12)"/><ellipse class="cls-49" cx="140.94" cy="34.76" rx="2.83" ry="1.06" transform="translate(-3.47 20.04) rotate(-8.03)"/><ellipse class="cls-50" cx="142.42" cy="36.96" rx="2.72" ry="1.1" transform="translate(16.49 113.07) rotate(-45.7)"/><ellipse class="cls-49" cx="145.15" cy="37.79" rx="1.14" ry="2.62"/><ellipse class="cls-50" cx="147.68" cy="37.61" rx="1.14" ry="2.63" transform="translate(-4.71 36.69) rotate(-13.94)"/><ellipse class="cls-49" cx="149.73" cy="36.1" rx="1.09" ry="2.75" transform="translate(28.94 131.67) rotate(-51.91)"/><ellipse class="cls-50" cx="150.51" cy="33.93" rx="1.06" ry="2.83" transform="translate(90.22 175.95) rotate(-79.71)"/><ellipse class="cls-50" cx="148.68" cy="29.99" rx="2.68" ry="1.12" transform="translate(42.87 138.67) rotate(-57.17)"/><ellipse class="cls-49" cx="150.38" cy="31.67" rx="2.79" ry="1.07" transform="translate(2.29 72.73) rotate(-27.39)"/><path class="cls-24" d="M219.81,35.53s-1.52-3,3.36-13l.25-.5"/><ellipse class="cls-40" cx="225.1" cy="20.76" rx="2.33" ry="2.21"/><ellipse class="cls-41" cx="224.53" cy="16.34" rx="1.11" ry="2.62"/><ellipse class="cls-42" cx="226.62" cy="16.54" rx="2.63" ry="1.11" transform="translate(172.62 237.25) rotate(-80.42)"/><ellipse class="cls-41" cx="228.59" cy="17.55" rx="2.67" ry="1.09" transform="translate(77.37 189.87) rotate(-53.12)"/><ellipse class="cls-42" cx="229.94" cy="19.81" rx="2.75" ry="1.06" transform="translate(4.68 70.06) rotate(-17.5)"/><ellipse class="cls-41" cx="229.72" cy="22.05" rx="1.06" ry="2.76" transform="translate(174.57 246.15) rotate(-81.66)"/><ellipse class="cls-42" cx="228.29" cy="24.26" rx="1.08" ry="2.68" transform="translate(45.19 162.74) rotate(-43.17)"/><ellipse class="cls-41" cx="225.64" cy="25.09" rx="1.11" ry="2.62"/><ellipse class="cls-42" cx="223.18" cy="24.91" rx="2.63" ry="1.11" transform="translate(147.23 236.24) rotate(-76.6)"/><ellipse class="cls-41" cx="221.18" cy="23.4" rx="2.7" ry="1.08" transform="translate(34.97 145.04) rotate(-39.19)"/><ellipse class="cls-42" cx="220.43" cy="21.23" rx="2.75" ry="1.06" transform="translate(-0.11 41.24) rotate(-10.69)"/><ellipse class="cls-42" cx="222.21" cy="17.29" rx="1.09" ry="2.66" transform="translate(24.21 119.63) rotate(-31.78)"/><ellipse class="cls-41" cx="220.56" cy="18.96" rx="1.07" ry="2.73" transform="translate(99.27 204.15) rotate(-61.69)"/><path class="cls-51" d="M331.45,39s1.44-3-3.18-13L328,25.5"/><ellipse class="cls-52" cx="326.44" cy="24.21" rx="2.2" ry="2.21"/><ellipse class="cls-53" cx="326.98" cy="19.78" rx="1.05" ry="2.62"/><ellipse class="cls-54" cx="325" cy="19.98" rx="1.05" ry="2.62" transform="translate(0.82 50.45) rotate(-8.89)"/><ellipse class="cls-53" cx="323.14" cy="20.99" rx="1.05" ry="2.62" transform="translate(45.92 188.35) rotate(-34.84)"/><ellipse class="cls-54" cx="321.85" cy="23.26" rx="1.05" ry="2.62" transform="translate(196.38 320.56) rotate(-71.25)"/><ellipse class="cls-53" cx="322.06" cy="25.5" rx="2.62" ry="1.05" transform="translate(-0.04 50.52) rotate(-8.97)"/><ellipse class="cls-54" cx="323.42" cy="27.7" rx="2.62" ry="1.05" transform="translate(90.19 253.47) rotate(-48.97)"/><ellipse class="cls-53" cx="325.93" cy="28.53" rx="1.05" ry="2.62"/><ellipse class="cls-54" cx="328.26" cy="28.35" rx="1.05" ry="2.62" transform="translate(1.61 71.46) rotate(-12.45)"/><ellipse class="cls-53" cx="330.15" cy="26.84" rx="1.05" ry="2.62" transform="translate(92.1 257.17) rotate(-48.7)"/><ellipse class="cls-54" cx="330.86" cy="24.67" rx="1.05" ry="2.62" transform="translate(240.83 344) rotate(-78.52)"/><ellipse class="cls-54" cx="329.18" cy="20.73" rx="2.62" ry="1.05" transform="translate(147.19 295.81) rotate(-60.11)"/><ellipse class="cls-53" cx="330.74" cy="22.41" rx="2.62" ry="1.05" transform="translate(33.4 168.97) rotate(-30.11)"/><path class="cls-24" d="M270.23,63.12s-1.53-3,3.35-13c.09-.17.17-.33.25-.5"/><ellipse class="cls-40" cx="275.51" cy="48.35" rx="2.33" ry="2.21"/><ellipse class="cls-41" cx="274.94" cy="43.93" rx="1.11" ry="2.62"/><ellipse class="cls-42" cx="277.04" cy="44.13" rx="2.63" ry="1.11" transform="matrix(0.17, -0.99, 0.99, 0.17, 187.44, 309.96)"/><ellipse class="cls-41" cx="279" cy="45.14" rx="2.67" ry="1.09" transform="translate(75.47 241.23) rotate(-53.12)"/><ellipse class="cls-42" cx="280.35" cy="47.4" rx="2.75" ry="1.06" transform="translate(-1.28 86.5) rotate(-17.5)"/><ellipse class="cls-41" cx="280.14" cy="49.64" rx="1.06" ry="2.76" transform="translate(190.38 319.62) rotate(-81.66)"/><ellipse class="cls-42" cx="278.7" cy="51.85" rx="1.08" ry="2.68" transform="translate(39.96 204.7) rotate(-43.17)"/><ellipse class="cls-41" cx="276.05" cy="52.68" rx="1.11" ry="2.62"/><ellipse class="cls-42" cx="273.59" cy="52.5" rx="2.63" ry="1.11" transform="translate(159.12 306.47) rotate(-76.6)"/><ellipse class="cls-41" cx="271.6" cy="50.99" rx="2.7" ry="1.08" transform="translate(28.88 183.1) rotate(-39.19)"/><ellipse class="cls-42" cx="270.85" cy="48.82" rx="2.75" ry="1.06" transform="translate(-4.36 51.06) rotate(-10.69)"/><ellipse class="cls-42" cx="272.62" cy="44.88" rx="1.09" ry="2.66" transform="translate(17.24 150.32) rotate(-31.78)"/><ellipse class="cls-41" cx="270.97" cy="46.55" rx="1.07" ry="2.73" transform="translate(101.49 263.05) rotate(-61.69)"/><path class="cls-24" d="M184.93,57.05s-1.53-3,3.35-13l.25-.5"/><ellipse class="cls-40" cx="190.21" cy="42.28" rx="2.33" ry="2.21"/><ellipse class="cls-41" cx="189.64" cy="37.86" rx="1.11" ry="2.62"/><ellipse class="cls-42" cx="191.73" cy="38.06" rx="2.63" ry="1.11" transform="translate(122.31 220.79) rotate(-80.42)"/><ellipse class="cls-41" cx="193.7" cy="39.07" rx="2.67" ry="1.09" transform="matrix(0.6, -0.8, 0.8, 0.6, 46.21, 170.57)"/><ellipse class="cls-42" cx="195.05" cy="41.33" rx="2.75" ry="1.06" transform="translate(-3.4 60.57) rotate(-17.5)"/><ellipse class="cls-41" cx="194.84" cy="43.57" rx="1.06" ry="2.76" transform="translate(123.46 230.03) rotate(-81.66)"/><ellipse class="cls-42" cx="193.4" cy="45.78" rx="1.08" ry="2.68" transform="translate(21.02 144.7) rotate(-43.17)"/><ellipse class="cls-41" cx="190.75" cy="46.61" rx="1.11" ry="2.62"/><ellipse class="cls-42" cx="188.29" cy="46.43" rx="2.63" ry="1.11" transform="translate(99.49 218.83) rotate(-76.6)"/><ellipse class="cls-41" cx="186.29" cy="44.92" rx="2.7" ry="1.08" transform="translate(13.53 127.83) rotate(-39.19)"/><ellipse class="cls-42" cx="185.54" cy="42.75" rx="2.75" ry="1.06" transform="translate(-4.71 35.14) rotate(-10.69)"/><ellipse class="cls-42" cx="187.32" cy="38.81" rx="1.09" ry="2.66" transform="translate(7.65 104.48) rotate(-31.78)"/><ellipse class="cls-41" cx="185.67" cy="40.48" rx="1.07" ry="2.73" transform="translate(61.98 184.75) rotate(-61.69)"/></g></g></svg>