<svg id="Layer_1" data-name="Layer 1" xmlns="http://www.w3.org/2000/svg" viewBox="0 0 102 433"><defs><style>.cls-1{fill:#612d0e;}.cls-2{fill:#164c23;}.cls-3{fill:#183e1e;}</style></defs><g id="Group_14" data-name="Group 14"><path id="Rectangle_12" data-name="Rectangle 12" class="cls-1" d="M51.44,233h0a12.5,12.5,0,0,1,12.5,12.5v175A12.5,12.5,0,0,1,51.44,433h0a12.5,12.5,0,0,1-12.5-12.5v-175A12.5,12.5,0,0,1,51.44,233Z" transform="translate(-0.94)"/><rect id="Rectangle_13" data-name="Rectangle 13" class="cls-2" width="102" height="291" rx="48"/><path class="cls-3" d="M42.26,1.51h.11a0,0,0,0,1,0,0V291a0,0,0,0,1,0,0h-.11A42.26,42.26,0,0,1,0,248.74v-205A42.26,42.26,0,0,1,42.26,1.51Z"/></g></svg>