<svg xmlns="http://www.w3.org/2000/svg" viewBox="0 0 678.98 663.18"><defs><style>.cls-1{fill:#fff;}.cls-2{fill:none;stroke:#f389ae;stroke-miterlimit:10;stroke-width:5px;}.cls-3{fill:#4ac0d1;}.cls-4{fill:#61c8d7;}.cls-5{fill:#ecf8f8;}</style></defs><g id="Layer_1" data-name="Layer 1"><g id="Laag_2" data-name="Laag 2"><path class="cls-1" d="M679.11,512.12a147.18,147.18,0,0,1-245.52,109.5,147.18,147.18,0,0,1-202,7.59A147.2,147.2,0,1,1,91.47,372.32,147.21,147.21,0,0,1,325.24,272.07a147.2,147.2,0,0,1,233.07,95.19A147.23,147.23,0,0,1,679.11,512.12Z" transform="translate(-0.13 -2.5)"/></g></g><g id="Layer_2" data-name="Layer 2"><path class="cls-2" d="M-17.5,116.63" transform="translate(-0.13 -2.5)"/><path class="cls-3" d="M643,270.41a9.14,9.14,0,0,1-10.5-.25l-10.07-2.91c5.19,1.71,8.76,6.05,9,10.83.24,4.07-1.86,8.9-5.62,10.32-4,1.5-8.2-1.49-13-5A57.35,57.35,0,0,1,597.32,266a53.75,53.75,0,0,1-7.5-1.73c-17.26-5.33-23.2-16.83-37.6-26.1a70.88,70.88,0,0,0-19.72-8.72V381.75a4.25,4.25,0,0,1-4.25,4.25H410.15c1.24,43,1.41,74.92,1,86.54-.11,2.55-.4,8.06-4.25,12.25-4,4.35-9.76,5-13.38,5.37-7.83.85-21.07-.58-23.37-7.75-1.15-3.58.88-7.19,1.37-8,5.49-9.1,23.12-9.5,23.13-9.5q-.86-39.45-1.7-78.91h-121c1.24,43,1.41,74.92,1,86.54-.11,2.55-.4,8.06-4.25,12.25-4,4.35-9.76,5-13.38,5.37-7.83.85-21.07-.58-23.37-7.75-1.15-3.58.88-7.19,1.37-8,2.74-4.55,8.52-6.93,13.62-8.16a49.68,49.68,0,0,1,9.51-1.34q-.86-39.45-1.7-78.91H131.75a4.25,4.25,0,0,1-4.25-4.25V211.29h-.28c-5.77,0-9.27,1.94-13.94,3.37a60.57,60.57,0,0,1-19.1,1.87s-12.67-.66-26.26-9.59c-16.78-11-28-35.73-28.32-64.84a34.28,34.28,0,0,1-23.53-19.92c-1.94-4.26-3.46-7.59-2-11a9.11,9.11,0,0,1,7.59-5.34c4.36-.25,7.35,3.21,8,4,2.4,2.78,1.83,4.86,4.64,8.86a22.37,22.37,0,0,0,3.75,4.13c-.13-2.5-.25-5-.38-7.5-1.57-8.5,2.8-15.28,7.69-16.13,3.91-.67,7.83,2.5,9.75,5.44,3.77,5.79.85,12.34.42,13.22l6.7-12.28c3.87-2.83,8.62-3.15,11.82-.94a9.43,9.43,0,0,1,3.66,6.69c.23,2.82-1,4.33-5,11.12-4.9,8.39-4.38,8.39-6.18,10.5a31,31,0,0,1-10.13,7.69c.66,27.37,11,50.11,26.44,55.64a49.62,49.62,0,0,0,20.81,2.48c8.72-1.13,13-4.62,22.31-4.68.5,0,1,0,1.47,0V6.75a4.25,4.25,0,0,1,4.25-4.25h396.5a4.25,4.25,0,0,1,4.25,4.25V213a62.22,62.22,0,0,1,23,9.37c13.08,8.85,19.39,21,36.28,25.31a45.15,45.15,0,0,0,6.19,1.13,26.58,26.58,0,0,0,18.75-20c3.59-5,8.9-7,12.38-5.38,4.12,1.9,4.31,8.21,4.37,10,.29,9.28-7.22,15.76-8.87,17.13a27.36,27.36,0,0,1,13.5,3.37c3.36,1.89,8,4.46,8.37,9A8.47,8.47,0,0,1,643,270.41Z" transform="translate(-0.13 -2.5)"/><path class="cls-4" d="M219.74,40,186.19,20.79a12,12,0,0,0-16.37,4.47L150.66,58.81a12,12,0,0,0,4.47,16.37l33.55,19.16a12,12,0,0,0,16.37-4.47l19.16-33.55A12,12,0,0,0,219.74,40ZM202.82,85.77a10.51,10.51,0,0,1-14.3,3.9L159.23,73a10.51,10.51,0,0,1-3.9-14.3l16.72-29.29a10.51,10.51,0,0,1,14.3-3.9l29.29,16.72a10.51,10.51,0,0,1,3.9,14.3Z" transform="translate(-0.13 -2.5)"/><path class="cls-4" d="M459.82,273l-33.55-19.15a12,12,0,0,0-16.37,4.47l-19.15,33.55a12,12,0,0,0,4.47,16.37l33.55,19.15a12,12,0,0,0,16.37-4.47l19.15-33.55A12,12,0,0,0,459.82,273ZM442.9,318.82a10.5,10.5,0,0,1-14.29,3.9L399.32,306a10.51,10.51,0,0,1-3.91-14.3l16.72-29.29a10.52,10.52,0,0,1,14.3-3.91l29.29,16.73a10.5,10.5,0,0,1,3.91,14.29Z" transform="translate(-0.13 -2.5)"/><path class="cls-4" d="M296.42,276.8l-33.55-19.15a12,12,0,0,0-16.37,4.47l-19.15,33.55A12,12,0,0,0,231.82,312l33.54,19.15a12,12,0,0,0,16.38-4.47l19.15-33.55A12,12,0,0,0,296.42,276.8ZM279.5,322.62a10.5,10.5,0,0,1-14.29,3.91l-29.3-16.73a10.5,10.5,0,0,1-3.9-14.29l16.72-29.3a10.51,10.51,0,0,1,14.3-3.9L292.32,279a10.51,10.51,0,0,1,3.91,14.3Z" transform="translate(-0.13 -2.5)"/><path class="cls-4" d="M253.22,165.45,219.67,146.3a12,12,0,0,0-16.37,4.47l-19.15,33.55a12,12,0,0,0,4.47,16.37l33.54,19.15a12,12,0,0,0,16.38-4.47l19.15-33.55A12,12,0,0,0,253.22,165.45ZM236.3,211.27A10.5,10.5,0,0,1,222,215.18l-29.3-16.72a10.52,10.52,0,0,1-3.9-14.3l16.72-29.29a10.52,10.52,0,0,1,14.3-3.91l29.29,16.72A10.51,10.51,0,0,1,253,182Z" transform="translate(-0.13 -2.5)"/><path class="cls-4" d="M416,59.56,382.4,40.41A12,12,0,0,0,366,44.88L346.87,78.43a12,12,0,0,0,4.48,16.37L384.89,114a12,12,0,0,0,16.37-4.47l19.16-33.54A12,12,0,0,0,416,59.56ZM399,105.39a10.51,10.51,0,0,1-14.3,3.9L355.44,92.57a10.52,10.52,0,0,1-3.9-14.3L368.26,49a10.52,10.52,0,0,1,14.3-3.91L411.85,61.8a10.51,10.51,0,0,1,3.91,14.3Z" transform="translate(-0.13 -2.5)"/><path class="cls-4" d="M482,22.53,465.24,13a6,6,0,0,0-8.19,2.23L447.47,32a6,6,0,0,0,2.24,8.18l16.77,9.58a6,6,0,0,0,8.19-2.24l9.58-16.77A6,6,0,0,0,482,22.53Zm-8.46,22.92a5.25,5.25,0,0,1-7.15,1.95L451.76,39a5.26,5.26,0,0,1-1.95-7.15l8.36-14.65a5.26,5.26,0,0,1,7.15-1.95L480,23.65a5.25,5.25,0,0,1,2,7.15Z" transform="translate(-0.13 -2.5)"/><path class="cls-4" d="M444.88,285.61,428.1,276a6,6,0,0,0-8.18,2.24L410.34,295a6,6,0,0,0,2.24,8.19l16.77,9.57a6,6,0,0,0,8.18-2.23l9.58-16.78A6,6,0,0,0,444.88,285.61Zm-8.46,22.91a5.26,5.26,0,0,1-7.15,2l-14.65-8.36a5.26,5.26,0,0,1-1.95-7.15L421,280.32a5.26,5.26,0,0,1,7.15-2l14.65,8.37a5.25,5.25,0,0,1,1.95,7.14Z" transform="translate(-0.13 -2.5)"/><path class="cls-4" d="M203.59,277.38l-16.78-9.57a6,6,0,0,0-8.18,2.23l-9.58,16.78a6,6,0,0,0,2.23,8.18l16.78,9.58a6,6,0,0,0,8.18-2.24l9.58-16.77A6,6,0,0,0,203.59,277.38Zm-8.46,22.92a5.26,5.26,0,0,1-7.15,1.95l-14.65-8.36a5.26,5.26,0,0,1-2-7.15l8.36-14.65a5.26,5.26,0,0,1,7.15-1.95l14.65,8.36a5.26,5.26,0,0,1,2,7.15Z" transform="translate(-0.13 -2.5)"/><path class="cls-4" d="M293.47,336.88l-16.77-9.57a6,6,0,0,0-8.19,2.23l-9.58,16.78a6,6,0,0,0,2.24,8.18l16.77,9.58a6,6,0,0,0,8.19-2.24l9.57-16.77A6,6,0,0,0,293.47,336.88ZM285,359.79a5.25,5.25,0,0,1-7.15,2l-14.64-8.36a5.27,5.27,0,0,1-2-7.15l8.37-14.65a5.25,5.25,0,0,1,7.14-1.95L291.42,338a5.25,5.25,0,0,1,1.95,7.15Z" transform="translate(-0.13 -2.5)"/><path class="cls-4" d="M195.33,193.43l-16.77-9.58a6,6,0,0,0-8.18,2.24l-9.58,16.77a6,6,0,0,0,2.23,8.19l16.78,9.58a6,6,0,0,0,8.18-2.24l9.58-16.77A6,6,0,0,0,195.33,193.43Zm-8.45,22.91a5.26,5.26,0,0,1-7.15,2l-14.65-8.37a5.25,5.25,0,0,1-2-7.15l8.36-14.64a5.25,5.25,0,0,1,7.15-1.95l14.65,8.36a5.26,5.26,0,0,1,2,7.15Z" transform="translate(-0.13 -2.5)"/><path class="cls-4" d="M334.86,71.62l-16.77-9.57a6,6,0,0,0-8.18,2.23l-9.58,16.78a6,6,0,0,0,2.23,8.18l16.78,9.58a6,6,0,0,0,8.18-2.24l9.58-16.77A6,6,0,0,0,334.86,71.62Zm-8.45,22.92a5.26,5.26,0,0,1-7.15,1.95l-14.65-8.36A5.26,5.26,0,0,1,302.66,81L311,66.33a5.26,5.26,0,0,1,7.15-2l14.65,8.36a5.26,5.26,0,0,1,1.95,7.15Z" transform="translate(-0.13 -2.5)"/><path class="cls-4" d="M456.6,138l-16.78-9.58a6,6,0,0,0-8.18,2.23l-9.58,16.78a6,6,0,0,0,2.24,8.18l16.77,9.58a6,6,0,0,0,8.18-2.24l9.58-16.77A6,6,0,0,0,456.6,138Zm-8.46,22.91a5.26,5.26,0,0,1-7.15,2l-14.65-8.36a5.26,5.26,0,0,1-1.95-7.15l8.36-14.65a5.26,5.26,0,0,1,7.15-1.95l14.65,8.36a5.26,5.26,0,0,1,1.95,7.15Z" transform="translate(-0.13 -2.5)"/><path class="cls-4" d="M482,234.29l-16.77-9.58a6,6,0,0,0-8.19,2.23l-9.58,16.78a6,6,0,0,0,2.24,8.18l16.77,9.58a6,6,0,0,0,8.19-2.24l9.58-16.77A6,6,0,0,0,482,234.29Zm-8.46,22.91a5.25,5.25,0,0,1-7.15,1.95l-14.64-8.36a5.26,5.26,0,0,1-1.95-7.15L458.17,229a5.26,5.26,0,0,1,7.15-2L480,235.4a5.25,5.25,0,0,1,2,7.15Z" transform="translate(-0.13 -2.5)"/><path class="cls-4" d="M508.1,138l-16.78-9.58a6,6,0,0,0-8.18,2.23l-9.58,16.78a6,6,0,0,0,2.24,8.18l16.77,9.58a6,6,0,0,0,8.18-2.24l9.58-16.77A6,6,0,0,0,508.1,138Zm-8.46,22.91a5.26,5.26,0,0,1-7.15,2l-14.65-8.36a5.26,5.26,0,0,1-1.95-7.15l8.36-14.65a5.26,5.26,0,0,1,7.15-1.95l14.65,8.36a5.26,5.26,0,0,1,1.95,7.15Z" transform="translate(-0.13 -2.5)"/><rect class="cls-5" x="267.93" y="104.58" width="22.25" height="69.5" rx="11.12"/><rect class="cls-5" x="345.18" y="104.58" width="22.25" height="69.5" rx="11.12"/><rect class="cls-5" x="249.8" y="57.09" width="16.69" height="46.68" rx="7.86" transform="translate(132.36 -161.48) rotate(45)"/><rect class="cls-5" x="371.3" y="53.84" width="16.69" height="46.68" rx="8.35" transform="translate(746.9 -48.3) rotate(150)"/><path class="cls-5" d="M231.54,207.89l-.37-.16v0Z" transform="translate(-0.13 -2.5)"/><path class="cls-5" d="M409.55,209.08l-.15.09.14-.1A0,0,0,0,1,409.55,209.08Z" transform="translate(-0.13 -2.5)"/><path class="cls-5" d="M411.06,206a3.78,3.78,0,0,1-1.52,3l-.14.1a2.9,2.9,0,0,1-.33.2,180.63,180.63,0,0,1-82.89,26.52,181.54,181.54,0,0,1-97.63-21.56s0,0,0,0a3.54,3.54,0,0,1,1.33-6.81,3.43,3.43,0,0,1,1.28.24l.37.16,0,0a179,179,0,0,0,93.84,19.91,178.3,178.3,0,0,0,79.69-24.92,2.07,2.07,0,0,1,.25-.15,3.73,3.73,0,0,1,1.9-.52A3.8,3.8,0,0,1,411.06,206Z" transform="translate(-0.13 -2.5)"/></g></svg>