<svg xmlns="http://www.w3.org/2000/svg" viewBox="0 0 678.98 665.68"><defs><style>.cls-1{fill:#fff;}.cls-2{fill:#f27fa7;}.cls-3{fill:#ecf8f8;}.cls-4,.cls-5,.cls-6,.cls-7,.cls-8{fill:none;stroke:#f389ae;stroke-miterlimit:10;}.cls-4{stroke-width:2.9px;}.cls-5{stroke-width:3.42px;}.cls-6{stroke-width:5px;}.cls-7{stroke-width:2.66px;}.cls-8{stroke-width:2.5px;}</style></defs><g id="Layer_1" data-name="Layer 1"><g id="Laag_2" data-name="Laag 2"><path class="cls-1" d="M679.11,512.12a147.18,147.18,0,0,1-245.52,109.5,147.18,147.18,0,0,1-202,7.59A147.2,147.2,0,1,1,91.47,372.32,147.21,147.21,0,0,1,325.24,272.07a147.2,147.2,0,0,1,233.07,95.19A147.23,147.23,0,0,1,679.11,512.12Z" transform="translate(-0.13)"/></g></g><g id="Layer_2" data-name="Layer 2"><path class="cls-2" d="M579.39,385.86a13.1,13.1,0,0,1-10,2c5.26,1.73,8.89,6.09,9.25,11,.22,2.9-.65,6.71-3.25,8.75-4.48,3.51-14,1.66-21.5-6.75a15.45,15.45,0,0,1,2.75,10c-.49,5.24-4,11.26-8.5,11.75-6.79.74-12-11.76-12.75-13.5-3.88-9.58-1.81-18.72-.5-23a149.8,149.8,0,0,1-32.56-46,215.87,215.87,0,0,1-86.74,73.58,59.77,59.77,0,0,1,8.8,51.13c5.86-1.54,11.83.25,15.25,4.5,2.07,2.57,4.06,7.1,2.5,11-2.6,6.52-13.47,7.3-20,6-.86-.17-14.86-3.17-16.5-13.5-.78-4.92,1.62-9.06,2.75-10.75a37.43,37.43,0,0,0,3-26.25,36.71,36.71,0,0,0-9.28-16.41,213.34,213.34,0,0,1-146.91,2,34.41,34.41,0,0,0-4.56,15.94c-.57,17.87,13.34,28.69,14.75,29.75-1.94,3.85-7,12.4-17,16.5-10.46,4.28-25.25,3.28-28.25-3.25-1.32-2.87-.32-6.69,1.5-9s4.47-3.08,12-4.25c4.31-.67,9.81-1.41,16.25-2-2.31-2.59-12.51-14.57-11.75-32.25a44.24,44.24,0,0,1,4-16.55A215.72,215.72,0,0,1,149,339.16,90.5,90.5,0,0,1,145,355.92a91.86,91.86,0,0,1-17.25,30.19,19.15,19.15,0,0,1,4.31,6.94c3,8.57-1.05,18.11-7.13,23.43-2.09,1.83-8.23,7.21-13.5,4.69-4.79-2.29-6.56-10-4.31-13.69,1-1.54,2.36-2,3.46-4.34a10.67,10.67,0,0,0,.85-5.41c-9,8.32-19.54,10.64-25.5,6.57-.34-.24-4.24-3-4.5-7.32-.37-6.17,6.77-13.18,18.44-15.62a19.33,19.33,0,0,0-5.5-1.63c-4.89-.66-6.59,1.1-9.94,0-4.2-1.38-6-5.64-6.06-5.87a10.34,10.34,0,0,1,.68-9c4-6.45,15.63-4.68,17.42-4.4,10.37,1.58,16.76,9.11,18.9,11.91a72.5,72.5,0,0,0,12.5-27c3.08-13.89.3-22.54,6.24-31.6a217.73,217.73,0,0,1-22.63-97C111.5,97,207.53,0,326,0S540.46,97,540.46,216.75a217.57,217.57,0,0,1-25.2,102,134.55,134.55,0,0,0,31.88,52.6c9.11.82,15.5-.66,19.75-2.25,2.13-.8,4.39-1.88,7.5-1.5,3.63.44,9.06,2.93,10,8C585.46,381.37,579.79,385.57,579.39,385.86Z" transform="translate(-0.13)"/><rect class="cls-3" x="274.54" y="143.49" width="22.5" height="70.5" rx="11.25"/><rect class="cls-3" x="351.04" y="142.24" width="22.5" height="70.5" rx="11.25"/><rect class="cls-3" x="380.89" y="92" width="16.2" height="38.96" rx="7.7" transform="translate(34.98 307.71) rotate(-45)"/><rect class="cls-3" x="251.63" y="95.75" width="16.2" height="38.96" rx="7.7" transform="translate(157.43 -149.9) rotate(45)"/><path class="cls-3" d="M417.08,246a4,4,0,0,1-1.19,1.29,0,0,0,0,1,0,0l-.5.29a187.23,187.23,0,0,1-180.79,6,4,4,0,1,1,3.45-7.29,1.26,1.26,0,0,1,.28.19h0a180.26,180.26,0,0,0,173.18-6l.14-.08a4,4,0,0,1,5.44,5.58Z" transform="translate(-0.13)"/><path class="cls-4" d="M203.31,54.72c-.47.25-8,4.45-7.84,11.9a12.71,12.71,0,0,0,2.9,7.55c2.78,3.64,8.85,8.09,14.09,5.94,5.48-2.25,6.08-10.08,6.23-12,.33-4.32-.56-12.58-6.1-14.8C208.81,51.75,204.85,53.89,203.31,54.72Z" transform="translate(-0.13)"/><path class="cls-5" d="M177.84,122.36c-.64.25-11,4.45-10.86,11.9.08,3.75,2.8,6.39,4,7.55,3.85,3.64,12.26,8.09,19.53,5.94,7.6-2.25,8.43-10.08,8.64-12,.45-4.32-.78-12.58-8.45-14.8C185.47,119.4,180,121.53,177.84,122.36Z" transform="translate(-0.13)"/><path class="cls-6" d="M166.81,265.74c-.51.75-8.63,13.12-2.52,24.42,3.06,5.67,8.16,8.16,10.43,9.23,7.12,3.35,19.94,5.34,26.25-2.11,6.59-7.79,1.29-20.24,0-23.35-2.92-6.86-10.84-18.79-21.07-17.78C172.87,256.83,168.51,263.24,166.81,265.74Z" transform="translate(-0.13)"/><path class="cls-7" d="M123.59,358.27c.19.09.48.24.82.43,3.26,1.83,3.93,3.68,5.55,4.91,0,0,1.26.95,11.18.73h0l.46.19" transform="translate(-0.13)"/><path class="cls-6" d="M353.15,326.29c-.43-.8-7.65-13.71-20.5-13.5a21.93,21.93,0,0,0-13,5c-6.26,4.78-13.93,15.24-10.23,24.27,3.87,9.44,17.37,10.48,20.73,10.73,7.45.57,21.68-1,25.5-10.5C358.27,335.78,354.59,329,353.15,326.29Z" transform="translate(-0.13)"/><path class="cls-6" d="M450.5,349.61c-.83-.37-14.41-6.25-24.49,1.71a21.92,21.92,0,0,0-7.3,11.86c-2.08,7.6-1.83,20.57,6.59,25.5,8.81,5.16,20.17-2.21,23-4.05,6.26-4.06,16.64-13.92,13.89-23.82C460.32,354.05,453.25,350.86,450.5,349.61Z" transform="translate(-0.13)"/><path class="cls-6" d="M-17.5,116.63" transform="translate(-0.13)"/><path class="cls-6" d="M453.88,180.75c-6.49,2.16-18.66,6.22-19.5,13.5-.56,4.75,4.27,6.14,10.5,18.38,4,7.89,3,9.32,6,12.37,6.22,6.39,18.85,8.6,25.12,3.38,3.65-3,2.5-6.4,4.88-22.5,2.75-18.67,5.45-21.94,2.62-25.5C477.53,172.86,458.91,179.07,453.88,180.75Z" transform="translate(-0.13)"/><path class="cls-8" d="M444.32,66.94c-3.24,1.08-9.32,3.11-9.75,6.75-.28,2.37,2.14,3.07,5.25,9.19,2,3.94,1.52,4.66,3,6.18,3.11,3.2,9.43,4.3,12.56,1.69,1.83-1.52,1.25-3.2,2.44-11.25,1.38-9.33,2.73-11,1.31-12.75C456.15,63,446.84,66.1,444.32,66.94Z" transform="translate(-0.13)"/><path class="cls-6" d="M294.21,64.7c-6.49,2.16-18.65,6.22-19.5,13.5-.56,4.75,4.27,6.14,10.5,18.37,4,7.9,3,9.33,6,12.38,6.22,6.39,18.85,8.59,25.12,3.37,3.66-3,2.5-6.39,4.88-22.5,2.76-18.66,5.46-21.93,2.62-25.5C317.86,56.81,299.25,63,294.21,64.7Z" transform="translate(-0.13)"/><path class="cls-6" d="M196.44,343c-5.21,4.42-15,12.71-13.08,19.78,1.25,4.62,6.25,4.11,16.58,13.15,6.67,5.84,6.28,7.54,10.17,9.26,8.15,3.62,20.7,1,24.58-6.2,2.26-4.19-.06-6.87-3.84-22.7-4.38-18.36-3.09-22.4-7-24.65C215.47,326.85,200.49,339.53,196.44,343Z" transform="translate(-0.13)"/><path class="cls-7" d="M145.68,353.9a2.12,2.12,0,0,1-.51-.25c-1.31-.89-1.26-3-1.28-3.57-.15-4.4-8.11-10.83-11.2-9.45-1.06.47-2.12,2.12-4,2l-.24,0" transform="translate(-0.13)"/></g></svg>