<?xml version="1.0" encoding="utf-8"?>
<!-- Generator: Adobe Illustrator 25.3.0, SVG Export Plug-In . SVG Version: 6.00 Build 0)  -->
<svg version="1.1" id="Layer_2_1_" xmlns="http://www.w3.org/2000/svg" xmlns:xlink="http://www.w3.org/1999/xlink" x="0px" y="0px"
	 viewBox="0 0 408 292.7" style="enable-background:new 0 0 408 292.7;" xml:space="preserve">
<style type="text/css">
	.st0{fill:#EE75A2;}
	.st1{fill:#D82E6C;}
	.st2{fill:#604A98;}
	.st3{fill:#9982BB;}
	.st4{fill:#ADAEAE;}
	.st5{fill:#CFCFCE;}
	.st6{fill:#A8DAE8;}
	.st7{fill:#4F519E;}
</style>
<path class="st0" d="M391.1,99.5v168c0,9.9-8,17.9-17.9,17.9H53.3l-22.8-24.7V99.5c0-9.9,8-17.9,17.9-17.9l0,0h324.8
	C383.1,81.6,391.1,89.6,391.1,99.5z"/>
<path class="st1" d="M54.5,43.2v242.2h-1.2l-22.8-24.7l-8-8.7c-0.1-0.1-0.2-0.2-0.3-0.3c-3-3.4-4.7-7.8-4.7-12.3V43.5
	c0-0.2,0.1-0.3,0.3-0.3h0L54.5,43.2z"/>
<rect x="65.1" y="99.7" class="st2" width="339.9" height="14.4"/>
<path class="st3" d="M404.6,99.7H65.1L0,29.1h343.5L404.6,99.7z"/>
<path class="st3" d="M345.1,29.2v0.5l-0.5-0.5H345.1z"/>
<path class="st2" d="M65.1,114.2c0-4.8,0-9.6,0-14.4L0,29.1c0,4.8,0,9.6,0,14.4C21.7,67.1,43.4,90.6,65.1,114.2z"/>
<path class="st0" d="M71,7.1v57.4H54.5L38,46.5V7.1c0-0.9,0.2-1.8,0.5-2.7c0.1-0.2,0.2-0.4,0.3-0.6c0,0,0-0.1,0.1-0.1
	c0.1-0.2,0.2-0.3,0.3-0.5c0.2-0.4,0.5-0.7,0.8-1c0.1-0.1,0.3-0.3,0.5-0.4c0.2-0.2,0.5-0.3,0.7-0.5l0.3-0.2l0.5-0.2
	c0.2-0.1,0.4-0.2,0.5-0.2c0.2-0.1,0.3-0.1,0.5-0.2c0.1,0,0.3-0.1,0.4-0.1l0,0c0.2,0,0.4-0.1,0.6-0.1l0,0c0.2,0,0.5,0,0.7,0h19.4
	C67.9,0.3,71,3.3,71,7.1z"/>
<path class="st1" d="M54.5,0.2v64.2L38,46.5V6.4c0.1-0.7,0.3-1.4,0.5-2c0.1-0.2,0.2-0.4,0.3-0.6c0,0,0-0.1,0.1-0.1
	c0.1-0.2,0.2-0.3,0.3-0.5c0.2-0.4,0.5-0.7,0.8-1l0.2-0.2l0.3-0.3c0.2-0.2,0.5-0.3,0.7-0.5l0.3-0.2l0.5-0.2c0.2-0.1,0.4-0.2,0.5-0.2
	c0.2-0.1,0.3-0.1,0.5-0.1c0.1,0,0.3-0.1,0.4-0.1l0,0c0.2,0,0.4-0.1,0.6-0.1l0,0L54.5,0.2z"/>
<path class="st1" d="M54.5,239.3c0,10.2-8.3,18.5-18.5,18.5c-5.1,0-10-2.1-13.5-5.9c-0.1-0.1-0.2-0.2-0.3-0.3
	c-6.8-7.6-6.2-19.3,1.4-26.1c7.6-6.8,19.3-6.2,26.1,1.4C52.8,230.4,54.5,234.8,54.5,239.3z"/>
<rect x="185.6" y="287.7" class="st4" width="87.9" height="5"/>
<path class="st4" d="M177.8,279.4l7.8,8.3v5l-7.8-8.4C177.8,282.6,177.8,281,177.8,279.4z"/>
<path class="st5" d="M177.8,279.4h88.1l7.7,8.3h-87.9L177.8,279.4z"/>
<path class="st6" d="M116.5,172.4h27.2c7.7,0,13.9,6.2,13.9,13.9v38c0,7.7-6.2,13.9-13.9,13.9h-27.2c-7.7,0-13.9-6.2-13.9-13.9v-38
	C102.6,178.6,108.9,172.4,116.5,172.4z"/>
<path class="st6" d="M304.3,171.1h27.2c7.7,0,13.9,6.2,13.9,13.9v38c0,7.7-6.2,13.9-13.9,13.9h-27.2c-7.7,0-13.9-6.2-13.9-13.9v-38
	C290.4,177.4,296.6,171.1,304.3,171.1z"/>
<path class="st7" d="M255.6,199.8v79.6h-67.3v-79.6c0-17.2,15.1-31.1,33.6-31.1S255.6,182.6,255.6,199.8z"/>
<path class="st1" d="M251.1,205.1v74.3h-58.3v-74.3c0-16.1,13.1-29.1,29.1-29.1C238.1,176,251.1,189,251.1,205.1z"/>
</svg>
