<svg id="Layer_1" data-name="Layer 1" xmlns="http://www.w3.org/2000/svg" viewBox="0 0 378.63 291.25"><defs><style>.cls-1,.cls-2,.cls-3,.cls-4{fill:none;}.cls-2,.cls-3,.cls-4{stroke:#771955;}.cls-2{stroke-width:19.42px;}.cls-3{stroke-width:9.71px;}.cls-4{stroke-width:18px;}</style></defs><g id="Rectangle_113" data-name="Rectangle 113"><polyline class="cls-1" points="77.67 135.23 77.67 126.81 77.67 125.4 77.67 117.04"/><polyline class="cls-1" points="119.59 19.42 134.93 19.42 378.63 19.42 378.63 233 174.75 233 165.04 233 165.04 223.29"/><polyline class="cls-2" points="165.04 223.29 174.75 223.29 368.92 223.29 368.92 29.13 143.14 29.13 130.8 29.13"/><polyline class="cls-2" points="87.38 116.5 87.38 126.21 87.38 135.92"/></g><g id="Ellipse_122" data-name="Ellipse 122"><path class="cls-1" d="M87.38,135.92a67.6,67.6,0,0,0,26.12-5.21,66.58,66.58,0,0,0,11.1-5.9,68,68,0,1,0-74.45,0,66.72,66.72,0,0,0,11.11,5.91,67.41,67.41,0,0,0,16.41,4.51"/><circle class="cls-2" cx="87.38" cy="67.96" r="58.25"/></g><g id="Rectangle_114" data-name="Rectangle 114"><path class="cls-1" d="M174.63,199.16h0q.12,2.34.12,4.71v87.37H0V203.88a87.38,87.38,0,0,1,50.15-79.07A86.84,86.84,0,0,1,77.67,117,87.72,87.72,0,0,1,113,120.31a85.17,85.17,0,0,1,11.64,4.5,87.6,87.6,0,0,1,43,44.34c.67,1.52,1.29,3,1.87,4.62h0M165,233v-9.71"/><polyline class="cls-2" points="165.04 205.89 165.04 211.82 165.04 223.29"/><path class="cls-2" d="M161.16,179.57c-.53-1.6-1.1-3.17-1.73-4.72a77.78,77.78,0,0,0-81.76-48,76.44,76.44,0,0,0-16.41,3.91A77.67,77.67,0,0,0,9.71,203.88v69a8.63,8.63,0,0,0,8.63,8.63H156.41a8.63,8.63,0,0,0,8.63-8.63V233"/></g><g id="Rectangle_115" data-name="Rectangle 115"><path class="cls-1" d="M146.84,223.29a16.63,16.63,0,0,0,5.38-2.49l12.82-9,9.71-6.81,80-56.08a16.75,16.75,0,0,0-19.22-27.43l-68,47.65-8.13,5.7L133,193.37a16.74,16.74,0,0,0,5.42,29.92"/><path class="cls-3" d="M254.9,128.39h0A11.89,11.89,0,0,1,252,145L149.44,216.82a11.9,11.9,0,0,1-16.57-2.91h0a11.89,11.89,0,0,1,2.92-16.56l102.54-71.87A11.9,11.9,0,0,1,254.9,128.39Z"/></g><rect class="cls-4" x="164.34" y="231.41" width="0.56" height="0.56"/></svg>