<svg id="Layer_1" data-name="Layer 1" xmlns="http://www.w3.org/2000/svg" viewBox="0 0 272.81 272.81"><defs><style>.cls-1,.cls-2{fill:none;}.cls-2{stroke:#771955;stroke-width:18.19px;}.cls-3{fill:#771955;}</style></defs><g id="Ellipse_121" data-name="Ellipse 121"><circle class="cls-1" cx="136.4" cy="136.4" r="136.4"/><circle class="cls-2" cx="136.4" cy="136.4" r="127.31"/></g><path class="cls-3" d="M184.93,215.76c-8.59,5.82-23,11.64-41.32,11.64-22.46,0-42.43-8.59-56.29-24.68C76.78,191.07,69.85,175,67.35,155H50.16V141.43H66v-4.16c0-4.43.28-8.59.56-12.48H50.16V110.93h18.3c3.33-19.41,11.65-35.5,22.74-46.87,14.14-14.7,32.17-23,54.91-23A78.68,78.68,0,0,1,183,49.92l-5.54,18.3c-6.94-4.16-18.58-7.76-31.06-7.76-15,0-27.18,5.27-36.61,15.25-8.32,8-13.87,20.52-16.64,35.22h77.37v13.86H90.65c-.28,3.61-.56,7.77-.56,11.65v5h80.42V155H92c2.22,16.09,7.77,28,15.25,36.33,10.27,10.82,24.13,16.09,39.11,16.09,14.7,0,27.45-5.55,33.83-9.16Z" transform="translate(0 0)"/></svg>