<svg id="Layer_1" data-name="Layer 1" xmlns="http://www.w3.org/2000/svg" viewBox="0 0 219.45 243.84"><defs><style>.cls-1,.cls-2,.cls-4{fill:none;}.cls-2,.cls-4{stroke:#771955;}.cls-2{stroke-width:16.26px;}.cls-3{fill:#771955;}.cls-4{stroke-width:8.13px;}</style></defs><g id="Group_88" data-name="Group 88"><g id="Ellipse_117" data-name="Ellipse 117"><circle class="cls-1" cx="109.73" cy="134.11" r="109.73"/><circle class="cls-2" cx="109.73" cy="134.11" r="101.6"/></g><g id="Polygon_2" data-name="Polygon 2"><path class="cls-3" d="M121.06,134.11H99.61a4.07,4.07,0,0,1-4-4.73L106.32,65a4.06,4.06,0,0,1,8,0l10.73,64.35a4.07,4.07,0,0,1-4,4.73Z" transform="translate(-0.61)"/><path class="cls-3" d="M110.33,65.7h0L99.61,130.05h21.45L110.33,65.7m0-8.13a7.9,7.9,0,0,1,8,6.79l10.73,64.35a8.13,8.13,0,0,1-8,9.46H99.61a8.13,8.13,0,0,1-8-9.46l10.73-64.35A7.89,7.89,0,0,1,110.33,57.57Z" transform="translate(-0.61)"/></g><g id="Rectangle_111" data-name="Rectangle 111"><path class="cls-1" d="M81.89,0h56.89a8.13,8.13,0,0,1,8.13,8.13h0a8.13,8.13,0,0,1-8.13,8.13H81.89a8.13,8.13,0,0,1-8.13-8.13h0A8.13,8.13,0,0,1,81.89,0Z" transform="translate(-0.61)"/><path class="cls-4" d="M81.89,4.06h56.89a4.06,4.06,0,0,1,4.06,4.07h0a4.06,4.06,0,0,1-4.06,4.06H81.89a4.07,4.07,0,0,1-4.07-4.06h0A4.07,4.07,0,0,1,81.89,4.06Z" transform="translate(-0.61)"/></g><g id="Rectangle_112" data-name="Rectangle 112"><rect class="cls-1" x="97.53" y="16.26" width="24.38" height="16.26"/><rect class="cls-4" x="101.6" y="20.32" width="16.26" height="8.13"/></g></g></svg>