<?xml version="1.0" encoding="utf-8"?>
<!-- Generator: Adobe Illustrator 25.0.0, SVG Export Plug-In . SVG Version: 6.00 Build 0)  -->
<svg version="1.1" id="Layer_1" xmlns="http://www.w3.org/2000/svg" xmlns:xlink="http://www.w3.org/1999/xlink" x="0px" y="0px"
	 viewBox="0 0 271.3 270.43" style="enable-background:new 0 0 271.3 270.43;" xml:space="preserve">
<style type="text/css">
	.st0{fill:#0660AB;}
	.st1{fill:#263165;}
	.st2{fill:#179AD7;}
	.st3{fill:#E8E8E8;}
	.st4{fill:none;stroke:#161615;stroke-width:8;stroke-miterlimit:10;}
	.st5{fill:none;}
	.st6{fill:#FFFFFF;}
	.st7{fill:#FFFFFF;stroke:#FFFFFF;stroke-width:24;stroke-miterlimit:10;}
</style>
<path id="Path_14" class="st6" d="M101.32,253.91l-0.39-110.35l-29.88-0.78l0.39-44.81l31.45-0.39c-0.26-5.48-0.62-13.5-0.97-23.3
	c-0.38-4.8-0.45-9.63-0.21-14.44c2.03-11.34,8.08-21.57,17.05-28.8c11.52-9.49,26.26-14.16,41.14-13.02h30.66v42.61
	c-11.56,0.63-19.85,0.62-25.94,0.39c-3.33-0.53-6.74,0.32-9.44,2.35c-2.09,2.53-3.08,5.78-2.75,9.04
	c-0.14,5.99-0.14,14.23,0.39,24.37l36.16,0.78l-3.54,46.39l-33.03-0.39c-0.39,36.77-0.79,73.56-1.18,110.35L101.32,253.91z"/>
</svg>
