<?xml version="1.0" encoding="utf-8"?>
<!-- Generator: Adobe Illustrator 25.0.0, SVG Export Plug-In . SVG Version: 6.00 Build 0)  -->
<svg version="1.1" id="Layer_1" xmlns="http://www.w3.org/2000/svg" xmlns:xlink="http://www.w3.org/1999/xlink" x="0px" y="0px"
	 viewBox="0 0 270.43 270.43" style="enable-background:new 0 0 270.43 270.43;" xml:space="preserve">
<style type="text/css">
	.st0{fill:#0660AB;}
	.st1{fill:#263165;}
	.st2{fill:#179AD7;}
	.st3{fill:#E8E8E8;}
	.st4{fill:none;stroke:#161615;stroke-width:8;stroke-miterlimit:10;}
	.st5{fill:none;}
	.st6{fill:#FFFFFF;}
	.st7{fill:#FFFFFF;stroke:#FFFFFF;stroke-width:24;stroke-miterlimit:10;}
</style>
<path id="Path_13" class="st6" d="M258.26,59.81c-6.09,9.87-14.24,18.32-23.9,24.75c0,0.68,0.04,1.35,0.04,2.03
	c0,1.48-0.07,2.9-0.19,4.31c0.13,2.36,0.19,4.74,0.19,7.12c0,74.98-63.85,135.77-142.6,135.77c-28.22,0.09-55.87-7.94-79.64-23.14
	c17.72,3.44,36.07,1.48,52.66-5.63c8.4-3.72,16.15-8.75,22.96-14.91c-10.7-0.55-20.91-4.67-29.01-11.69
	c-6.69-5.92-11.58-13.6-14.1-22.17c5.51,2.12,11.58,2.33,17.22,0.6c1.54-0.51,3.03-1.19,4.43-2.01
	c-23.91-4.75-40.79-26.21-39.78-50.57c3.18,2.96,7.06,5.04,11.28,6.05c3.03,0.71,6.17,0.85,9.26,0.4
	c-11.72-9.71-18.88-23.87-19.74-39.07c-0.17-8.71,1.92-17.31,6.04-24.97c26.2,29.86,62.95,48.4,102.54,51.72
	c-6.54-26.8,9.89-53.83,36.69-60.37c17.72-4.32,36.38,1.35,48.69,14.81c1.43-0.24,2.96-0.54,4.67-0.95
	c3.89-0.93,7.68-2.2,11.34-3.81c4.79-2.09,9.32-4.72,13.51-7.85c-2.16,10.79-8.83,20.14-18.34,25.68
	c9.06,1.29,18.27-0.91,25.77-6.15L258.26,59.81z"/>
</svg>
