<svg id="Layer_1" data-name="Layer 1" xmlns="http://www.w3.org/2000/svg" viewBox="0 0 299.61 292.37"><defs><style>.cls-1{fill:#efeff1;}</style></defs><path class="cls-1" d="M190.84,282.7V75.47h-21.6v46c-15.33-17.57-38.15-27.94-65.71-27.94-30.29,0-54.21,14.36-67.37,37.88V9.81H11.44V302H36.16V183.63c0-39.86,26.71-67.37,64.58-67.37,35,0,59.92,23.87,64.3,59.47V223.3c-7.34-12.65-20.73-20.72-37.24-20.72C99.37,202.58,79,223.49,79,252.29c0,29,20.55,49.89,49,49.89,1.34,0,2.65-.05,4-.14H311.05V282.7ZM90.39,252.29C90.2,229.54,106,213,127.8,213s37.61,16.51,37.61,39.26c-.19,22.92-15.78,39.43-37.61,39.43C106.16,291.72,90.39,275.21,90.39,252.29Z" transform="translate(-11.44 -9.81)"/></svg>