<?xml version="1.0" encoding="utf-8"?>
<!-- Generator: Adobe Illustrator 26.2.0, SVG Export Plug-In . SVG Version: 6.00 Build 0)  -->
<svg version="1.1" id="Laag_1" xmlns="http://www.w3.org/2000/svg" xmlns:xlink="http://www.w3.org/1999/xlink" x="0px" y="0px"
	 viewBox="0 0 2500 2438" style="enable-background:new 0 0 2500 2438;" xml:space="preserve">
<style type="text/css">
	.st0{fill:#001E36;}
	.st1{fill:#31A8FF;}
</style>
<path class="st0" d="M442.7,0.2h1614.7c244.7,0,442.7,197.9,442.7,442.7v1552.3c0,244.7-197.9,442.7-442.7,442.7H442.7
	C197.9,2437.8,0,2239.9,0,1995.1V442.9C0,198.1,197.9,0.2,442.7,0.2z"/>
<g>
	<path class="st1" d="M1255.9,1767.9H661.1c-10.7,0-14.6-5.9-14.6-18.5V684.7c0-10.7,3.9-14.6,13.7-14.6h184.3
		c6.8,0,10.7,3.9,10.7,11.7v874.6H1288c9.8,0,12.7,4.9,10.7,14.6l-27.3,181.4c-1,5.9-2.9,10.7-5.9,12.7
		C1262.7,1767,1258.8,1767.9,1255.9,1767.9L1255.9,1767.9z M1404.1,934.3h164.8c9.8,0,15.6,4.9,19.5,16.6c2.9,6.8,5.9,15.6,6.8,24.4
		c2,10.7,2.9,21.5,3.9,32.2c1,11.7,1,24.4,1,37.1c27.3-35.1,61.4-66.3,100.4-89.7c41.9-25.4,90.7-39,139.4-37.1
		c9.8,0,13.7,4.9,13.7,14.6v202.8c0,8.8-4.9,11.7-14.6,11.7c-33.2-2-66.3,0-98.5,6.8c-27.3,5.9-52.7,15.6-78,28.3
		c-18.5,9.8-36.1,23.4-50.7,39v531.4c0,10.7-3.9,14.6-12.7,14.6h-181.4c-10.7,0-14.6-4.9-14.6-16.6v-577.2c0-25.4,0-50.7-1-78
		c0-27.3-1-54.6-1.9-80.9c-1-23.4-2.9-45.8-5.9-69.2c0-2.9,0-5.9,1.9-9.8C1399.2,934.3,1401.1,933.3,1404.1,934.3L1404.1,934.3z"/>
</g>
</svg>
